<svg id="Layer_1" data-name="Layer 1" xmlns="http://www.w3.org/2000/svg" viewBox="0 0 64 64"><defs><style>.cls-1{fill:#dfe8f4;}.cls-2{fill:#fff;}.cls-3{fill:#0795ff;}.cls-4{fill:#156cdd;}</style></defs><title>ai, virtual, reality, vr, brain, thought</title><path class="cls-1" d="M54,22.08a3.54,3.54,0,0,1-.52-1.41A6.28,6.28,0,0,0,48,15.37c-.07-.14-.16-.27-.24-.4h0a8,8,0,0,0-6.83-3.89H37.81a7.46,7.46,0,0,0-7.46,7.47V48a5,5,0,0,0,5,5H40.9a8,8,0,0,0,7.32-4.8,2.58,2.58,0,0,1,1.43-1.36A7,7,0,0,0,54,40.3V39.06q0-.33,0-.66a2.49,2.49,0,0,1,.36-1.53,11.52,11.52,0,0,0,1.66-6V28.54A11.57,11.57,0,0,0,54,22.08Z"/><path class="cls-2" d="M39.75,24.06H35.5v-2h3.66l1.4-2.54,1.75,1-1.68,3.06A1,1,0,0,1,39.75,24.06Z"/><path class="cls-2" d="M40.65,33H35.5V31H40l1.42-3.13a1,1,0,0,1,.91-.58h4.32v2H43l-1.42,3.12A1,1,0,0,1,40.65,33Z"/><path class="cls-3" d="M50.29,28.29A2.69,2.69,0,1,1,47.6,25.6,2.68,2.68,0,0,1,50.29,28.29Z"/><path class="cls-4" d="M44.66,18.84A2.69,2.69,0,1,1,42,16.16,2.68,2.68,0,0,1,44.66,18.84Z"/><path class="cls-2" d="M47.94,37.38H44.31a1,1,0,0,1-.7-.3l-4.38-4.37a1,1,0,0,1,0-1.42,1,1,0,0,1,1.41,0l4.09,4.09h3.21a1,1,0,0,1,0,2Z"/><path class="cls-2" d="M39.65,45.72A1,1,0,0,1,39,44l4-4V36.38a1,1,0,1,1,2,0v4a1,1,0,0,1-.29.7l-4.35,4.35A1,1,0,0,1,39.65,45.72Z"/><path class="cls-4" d="M42,44.72A2.69,2.69,0,1,1,39.29,42,2.7,2.7,0,0,1,42,44.72Z"/><path class="cls-2" d="M38.47,39.25H37.23a1,1,0,1,1,0-2h1.24a1,1,0,0,1,0,2Z"/><path class="cls-2" d="M48.44,41.81a1,1,0,0,1-.93-1.38,1.19,1.19,0,0,1,.22-.33,1,1,0,0,1,1.41,0,1,1,0,0,1,0,1.42A1,1,0,0,1,48.44,41.81Z"/><path class="cls-2" d="M46.38,23.25a1,1,0,0,1-.93-.62,1,1,0,0,1-.08-.38.69.69,0,0,1,0-.2,1.21,1.21,0,0,1,.05-.18l.09-.18.13-.15a1,1,0,0,1,.9-.27.7.7,0,0,1,.19.06.56.56,0,0,1,.17.09l.15.12.13.15.09.18a1.21,1.21,0,0,1,.05.18.68.68,0,0,1,0,.2,1,1,0,0,1-.07.38,1.19,1.19,0,0,1-.22.33l-.15.12a.56.56,0,0,1-.17.09.7.7,0,0,1-.19.06Z"/><path class="cls-2" d="M45.67,33.5a1,1,0,0,1-.71-.29l-.13-.15-.09-.18a1.21,1.21,0,0,1-.05-.18.69.69,0,0,1,0-.2,1,1,0,0,1,.08-.38,1.19,1.19,0,0,1,.22-.33,1,1,0,0,1,1.41,0,1,1,0,0,1,.3.71,1.36,1.36,0,0,1,0,.2l-.06.18-.09.18-.13.15-.15.12a.56.56,0,0,1-.17.09.6.6,0,0,1-.19.06Z"/><path class="cls-2" d="M37.85,28.5l-.2,0-.18-.06a.61.61,0,0,1-.18-.09l-.15-.12a1,1,0,0,1,0-1.42,1,1,0,0,1,1.41,0,1,1,0,0,1,.13.16.91.91,0,0,1,.09.17,1.27,1.27,0,0,1,.06.18,1.36,1.36,0,0,1,0,.2,1,1,0,0,1-1,1Z"/><path class="cls-2" d="M46.38,45.72l-.2,0a.6.6,0,0,1-.19-.06.56.56,0,0,1-.17-.09l-.15-.12-.13-.15-.09-.18a1.21,1.21,0,0,1-.05-.18.69.69,0,0,1,0-.2,1,1,0,0,1,1.2-1,.7.7,0,0,1,.19.06.56.56,0,0,1,.17.09l.15.12a1.19,1.19,0,0,1,.22.33,1,1,0,0,1,.07.38.68.68,0,0,1,0,.2,1.21,1.21,0,0,1-.05.18l-.09.18-.13.15-.15.12a.56.56,0,0,1-.17.09.7.7,0,0,1-.19.06Z"/><path class="cls-2" d="M43.18,49.06a1,1,0,0,1-.71-.29.87.87,0,0,1-.22-.32,1.09,1.09,0,0,1-.08-.39,1.23,1.23,0,0,1,0-.19l.06-.19.09-.17a.64.64,0,0,1,.13-.15,1,1,0,0,1,1.41,0,.64.64,0,0,1,.13.15l.09.17a1.05,1.05,0,0,1,0,.19.63.63,0,0,1,0,.19,1.09,1.09,0,0,1-.08.39,1,1,0,0,1-.22.32A1,1,0,0,1,43.18,49.06Z"/><path class="cls-3" d="M25.71,13.17H22.93a7.15,7.15,0,0,0-6.14,3.5h0c-.07.12-.16.24-.22.36a5.69,5.69,0,0,0-5,4.77,3,3,0,0,1-.46,1.27,10.47,10.47,0,0,0-1.78,5.82V31a10.35,10.35,0,0,0,1.5,5.39,2.25,2.25,0,0,1,.33,1.38c0,.2,0,.4,0,.6v1.11a6.29,6.29,0,0,0,3.93,5.82,2.32,2.32,0,0,1,1.29,1.23,7.16,7.16,0,0,0,6.58,4.31h5a4.47,4.47,0,0,0,4.47-4.47V19.88A6.71,6.71,0,0,0,25.71,13.17Z"/><path class="cls-4" d="M26.25,11.07H23.16A8,8,0,0,0,16.33,15h0c-.08.13-.17.26-.24.4a6.29,6.29,0,0,0-5.54,5.3A3.39,3.39,0,0,1,10,22.08a11.57,11.57,0,0,0-2,6.46v2.34a11.52,11.52,0,0,0,1.66,6,2.5,2.5,0,0,1,.37,1.53,4.87,4.87,0,0,0,0,.66V40.3a7,7,0,0,0,4.37,6.47,2.59,2.59,0,0,1,1.42,1.36,8,8,0,0,0,7.32,4.8h5.59a5,5,0,0,0,5-5V18.54A7.46,7.46,0,0,0,26.25,11.07Zm4.09,27.08v1.63a4.26,4.26,0,0,1-.53,2.1A4,4,0,0,1,26.28,44h0a1.53,1.53,0,0,0-1.54,1.53v.31a1.54,1.54,0,0,0,1.54,1.53h0a7.42,7.42,0,0,0,3.79-1l.27-.18v1.41a2,2,0,0,1-2,2H23.16a4.6,4.6,0,0,1-3.94-2.23h1a1.68,1.68,0,0,0,1.68-1.69h0A1.68,1.68,0,0,0,20.21,44H17a1.69,1.69,0,0,0-.39-.08,3.43,3.43,0,0,1-3.14-3.36V40a8.53,8.53,0,0,0,3.67.86h3.06A7.36,7.36,0,0,0,25.08,39a7.07,7.07,0,0,0,2.38-5.31V32.6a4.31,4.31,0,0,0-4.32-4.31h-2.6a3,3,0,0,0-2.87,2.26h0a1,1,0,0,0-1.43,0l-.39.39a1.82,1.82,0,0,0,0,2.57h0a3.15,3.15,0,0,0,1.8.91,3,3,0,0,0,3.12-1.89A1.35,1.35,0,0,1,22,31.66h.61A1.37,1.37,0,0,1,24.08,33v.72a3.79,3.79,0,0,1-2.45,3.53,3.06,3.06,0,0,1-1.13.2H17.1a5.15,5.15,0,0,1-4.46-2.57L11.9,33.6a8.26,8.26,0,0,1-.46-2.72V28.54A8.2,8.2,0,0,1,12,25.6a5.88,5.88,0,0,0,.52.6l.4.39a1.69,1.69,0,0,0,2.39,0h0a1.68,1.68,0,0,0,0-2.38l-.4-.4a3.48,3.48,0,0,1-1-2.4,2.88,2.88,0,0,1,1-2,1.47,1.47,0,0,0,.37.59l2,2a9.12,9.12,0,0,0,6.43,2.66h.39a3.38,3.38,0,0,0,3.39-3.38v-.61c0-.1,0-.19,0-.28-.17-2.12-3.37-1.91-3.37.21v.68h-.39a5.71,5.71,0,0,1-4-1.67l-.6-.6a1.21,1.21,0,0,1-.25-1.36l.55-1.2a4.58,4.58,0,0,1,3.82-2.06h2.93a4.25,4.25,0,0,1,4.25,4.25Z"/><rect class="cls-4" x="30.35" y="8.01" width="3.36" height="47.99"/></svg>