<svg width="400" height="400" xmlns="http://www.w3.org/2000/svg" viewBox="15 0 400 400">
 <g id="Layer_1">
  <title>Layer 1</title>
    <path stroke="null" fill-rule="evenodd" fill="#158cc3" d="m345.22424,8.22481c-0.14564,0.81181 -0.35312,2.45421 -0.45985,3.64922c-0.10574,1.19501 -0.35711,2.52828 -0.55661,2.96283c-0.1995,0.43455 -0.45386,1.76782 -0.56459,2.96283c-0.10973,1.19501 -0.37506,3.32824 -0.58753,4.74053c-0.21347,1.41228 -0.59152,3.98994 -0.84089,5.72813c-0.24838,1.73819 -0.61845,4.22697 -0.82194,5.53061c-0.98952,6.34539 -1.22992,8.06581 -1.41246,10.07362c-0.10873,1.19501 -0.35711,2.52828 -0.55262,2.96283c-0.19451,0.43455 -0.45586,1.76782 -0.58055,2.96283c-0.25436,2.45125 -0.79102,6.46292 -1.37555,10.27114c-0.69426,4.53411 -1.25486,8.39172 -1.83341,12.6414c-0.31122,2.28138 -0.93466,6.54785 -1.38553,9.48105c-0.45087,2.9332 -1.08628,7.19967 -1.41047,9.48105c-0.32519,2.28138 -0.77406,5.3479 -0.9965,6.8145c-0.22344,1.4666 -0.59651,3.95538 -0.82992,5.53061c-0.23342,1.57524 -0.58753,3.8418 -0.78603,5.03681c-0.1995,1.19501 -0.45686,2.88382 -0.57157,3.75292c-0.32319,2.45618 -1.02743,7.28164 -1.41047,9.67857c-0.19152,1.19501 -0.55062,3.5949 -0.798,5.33309c-0.24738,1.73819 -0.60648,4.13808 -0.798,5.33309c-0.19152,1.19501 -0.55162,3.5949 -0.8,5.33309c-0.5596,3.90303 -1.07531,7.33893 -1.58603,10.56742c-0.4379,2.77321 -0.93266,6.0975 -1.60199,10.76494c-0.24838,1.73819 -0.61845,4.22697 -0.82194,5.53061c-0.20349,1.30364 -0.55561,3.61465 -0.78404,5.13557c-0.22843,1.52092 -0.57656,3.83192 -0.77406,5.13557c-0.19751,1.30364 -0.56259,3.79242 -0.81197,5.53061c-0.24838,1.73819 -0.60848,4.13808 -0.8,5.33309c-0.19152,1.19501 -0.52169,3.50601 -0.73416,5.13557c-0.35411,2.71198 -0.58354,4.23586 -1.69176,11.25875c-0.20648,1.30364 -0.5596,3.79242 -0.78603,5.53061c-0.39302,3.01221 -2.29325,15.96174 -3.17504,21.62667c-0.22743,1.46561 -0.58553,3.82205 -0.79501,5.2363c-0.20948,1.41426 -0.5596,3.77069 -0.77805,5.2363c-0.21845,1.46561 -0.50773,3.46453 -0.64239,4.44227c-0.25337,1.83103 -0.57456,3.94846 -1.37655,9.08601c-0.25536,1.62956 -0.62244,4.11833 -0.81795,5.53061c-0.19451,1.41228 -0.53865,3.76773 -0.76309,5.23433c-0.22544,1.4666 -0.57556,3.77761 -0.77805,5.13557c-0.20249,1.35796 -0.49376,3.30355 -0.64838,4.32375c-0.75511,5.00817 -1.56009,4.7504 -14.09468,-4.51337c-5.62391,-4.15685 -12.64931,-9.34674 -15.61188,-11.53231c-2.96258,-2.18558 -5.65583,-4.18648 -5.985,-4.44622c-0.32918,-0.25974 -7.15208,-5.31334 -15.16201,-11.23109c-13.80641,-10.19805 -20.26622,-14.96129 -36.90752,-27.21061c-8.85382,-6.51723 -19.41435,-14.31046 -19.95001,-14.72328c-0.21945,-0.16888 -1.92518,-1.41327 -3.7905,-2.76531c-1.86533,-1.35204 -3.66083,-2.67346 -3.99,-2.93616c-0.32918,-0.26369 -4.36606,-3.24825 -8.97052,-6.63278c-8.83187,-6.49156 -8.98449,-6.56266 -11.36552,-5.31531c-0.33616,0.17579 -3.57404,1.31747 -7.19497,2.53618c-3.62093,1.21871 -6.9426,2.3673 -7.3815,2.55198c-0.4389,0.18567 -1.42643,0.55109 -2.1945,0.81181c-0.76808,0.26073 -1.7556,0.62318 -2.1945,0.80391c-0.4389,0.18073 -1.96508,0.70515 -3.3915,1.16439c-1.42643,0.45825 -2.90572,1.00341 -3.28676,1.21081c-0.38105,0.2074 -0.96658,0.37628 -1.30174,0.37628c-0.33516,0 -0.92069,0.16394 -1.30174,0.36344c-0.38105,0.1995 -1.77056,0.74762 -3.08726,1.21673c-1.3167,0.46911 -2.70622,1.01724 -3.08726,1.21673c-0.38105,0.1995 -1.04339,0.36344 -1.47231,0.36344c-0.42893,0 -0.89077,0.17777 -1.02643,0.39504c-0.13566,0.21727 -0.5975,0.39504 -1.02643,0.39504c-0.42893,0 -1.13615,0.17777 -1.57206,0.39504c-0.43591,0.21727 -1.15012,0.57281 -1.58603,0.79009c-0.43591,0.21727 -1.1182,0.39504 -1.5162,0.39504c-0.398,0 -0.89376,0.14715 -1.10224,0.32591c-0.20848,0.17974 -1.18703,0.56788 -2.17455,0.8612c-0.98753,0.29431 -1.97505,0.65577 -2.1945,0.80194c-0.21945,0.14617 -1.25186,0.50862 -2.29425,0.8049c-1.04239,0.29628 -1.89525,0.6696 -1.89525,0.8286c0,0.15901 6.14959,4.83731 13.66576,10.39656c7.51617,5.55827 13.93508,10.32546 14.26426,10.59211c0.32918,0.26665 1.22693,0.91848 1.995,1.44784c0.76808,0.53035 1.48628,1.06958 1.596,1.19896c0.10973,0.12938 0.82793,0.66269 1.596,1.18513c0.76808,0.52245 1.48628,1.05575 1.596,1.18513c0.10973,0.12938 0.82793,0.66861 1.596,1.19896c0.76808,0.52936 1.66583,1.18316 1.995,1.45376c0.32918,0.2706 4.09973,3.07443 8.37901,6.23083c4.27928,3.1564 8.04983,5.9622 8.37901,6.23577c0.32918,0.27258 1.22693,0.92934 1.995,1.4587c0.76808,0.53035 1.48628,1.06958 1.596,1.19896c0.10973,0.12938 0.82793,0.66269 1.596,1.18513c0.76808,0.52245 1.48628,1.05575 1.596,1.18513c0.10973,0.12938 0.82793,0.66269 1.596,1.18513c0.76808,0.52245 1.48628,1.05477 1.596,1.18316c0.10973,0.12938 1.54014,1.2039 3.17804,2.39001c3.49225,2.52729 36.41376,26.97853 37.91899,28.16366c0.32918,0.25875 1.22693,0.90366 1.995,1.43302c0.76808,0.53035 1.48628,1.06958 1.596,1.19896c0.10973,0.12938 0.82793,0.66269 1.596,1.18513c0.76808,0.52245 1.48628,1.04785 1.596,1.16834c0.10973,0.12049 1.00748,0.80984 1.995,1.53178c2.11769,1.54758 93.43389,69.24623 95.10669,70.5084c13.79045,10.40644 18.82982,13.93023 19.08817,13.34655c0.15461,-0.34764 0.73516,-3.83291 1.29077,-7.74385c1.06633,-7.51373 2.9935,-20.59561 5.06232,-34.36881c1.41446,-9.41784 1.70373,-11.3664 2.34213,-15.80175c0.25037,-1.73819 0.62244,-4.27141 0.82693,-5.62937c0.20449,-1.35796 0.55262,-3.66897 0.77306,-5.13557c0.22045,-1.4666 0.57356,-3.91093 0.78404,-5.43185c0.20948,-1.52092 0.56259,-3.92081 0.78304,-5.33309c0.84189,-5.38741 1.26683,-8.18432 1.62293,-10.66618c0.20249,-1.41228 0.56159,-3.81217 0.798,-5.33309c0.23641,-1.52092 0.59551,-3.92081 0.798,-5.33309c0.51671,-3.60675 1.05635,-7.21152 1.596,-10.66618c0.61745,-3.95439 1.68877,-11.13036 2.38802,-15.99927c0.4399,-3.06159 1.61994,-11.03555 3.3915,-22.91254c0.77705,-5.21458 1.78453,-11.96983 2.23839,-15.01166c0.45386,-3.04184 0.98354,-6.59723 1.17805,-7.90088c0.74912,-5.02002 1.24289,-8.38579 1.56707,-10.66618c0.75012,-5.29457 1.61595,-11.21233 2.00697,-13.7258c0.22843,-1.46561 0.59052,-3.82106 0.80498,-5.23433c0.21446,-1.41327 0.56558,-3.72625 0.78005,-5.13952c1.37855,-9.08601 1.82742,-12.11698 2.39999,-16.19482c0.24339,-1.73819 0.60249,-4.13808 0.79601,-5.33309c0.19451,-1.19501 0.54464,-3.46157 0.77805,-5.03681c0.23342,-1.57524 0.61446,-4.1529 0.84788,-5.72813c0.23342,-1.57524 0.58354,-3.8418 0.77805,-5.03681c0.19352,-1.19501 0.55062,-3.5949 0.79301,-5.33309c0.24239,-1.73819 0.60249,-4.13808 0.80099,-5.33309c0.19751,-1.19501 0.45686,-2.9727 0.57456,-3.95044c0.11771,-0.97773 0.58055,-4.17759 1.02842,-7.11079c0.44788,-2.9332 1.07132,-7.11079 1.38453,-9.28353c0.57356,-3.96821 3.44636,-23.27697 4.23339,-28.44315c0.40798,-2.68333 0.6374,-4.25462 1.52418,-10.46866c0.23242,-1.62956 0.60648,-4.11833 0.83092,-5.53061c0.4409,-2.77222 1.18603,-8.60998 1.19102,-9.3339c0.002,-0.24394 -3.81245,-2.99838 -8.47576,-6.11923c-4.66332,-3.12085 -9.66678,-6.47575 -11.11914,-7.45546c-4.25135,-2.86901 -11.87325,-7.98877 -21.55599,-14.47934l-9.03436,-6.05602l-0.26633,1.47549" id="svg_6"/>
    <path stroke="null" fill-rule="evenodd" fill="#04040c" d="m270.19324,88.51252c-0.13566,0.21727 -0.64937,0.39504 -1.14114,0.39504c-0.49177,0 -1.06433,0.15505 -1.27281,0.34468c-0.39701,0.36147 -17.7186,7.16116 -18.24129,7.16116c-0.16559,0 -1.15211,0.37332 -2.19151,0.82959c-2.394,1.04983 -2.76806,1.19797 -6.87876,2.7258c-4.1107,1.52783 -4.48476,1.67597 -6.87876,2.7258c-1.0394,0.45628 -2.0748,0.82959 -2.29924,0.82959c-0.22444,0 -0.7202,0.15703 -1.10124,0.34863c-0.96159,0.48393 -4.03888,1.74906 -5.88027,2.41668c-0.4389,0.15901 -1.24688,0.46714 -1.7955,0.68441c-0.54863,0.21727 -1.44638,0.57281 -1.995,0.79009c-0.54863,0.21727 -1.44638,0.57281 -1.995,0.79009c-0.54863,0.21727 -1.44638,0.5817 -1.995,0.80984c-0.54863,0.22814 -5.48625,2.13225 -10.97251,4.23191c-5.48625,2.09966 -10.37899,3.98105 -10.87276,4.18055c-0.49376,0.20048 -1.30174,0.51849 -1.7955,0.70614c-0.49376,0.18863 -1.34663,0.52047 -1.89525,0.73774c-0.54863,0.21727 -1.44638,0.57281 -1.995,0.79009c-0.54863,0.21727 -1.53615,0.62022 -2.1945,0.89576c-0.65835,0.27554 -1.5561,0.63108 -1.995,0.79009c-0.8768,0.31801 -2.20248,0.83848 -3.89025,1.52684c-2.05385,0.83848 -2.89175,1.1634 -7.28175,2.82555c-2.41395,0.91255 -4.92765,1.8893 -5.586,2.16879c-0.65835,0.27949 -2.45385,0.98366 -3.99,1.56536c-1.53615,0.58071 -3.1521,1.21081 -3.591,1.39944c-0.4389,0.18863 -2.41395,0.95699 -4.389,1.70758c-4.91967,1.86954 -16.15751,6.18145 -17.25676,6.61995c-1.76358,0.70417 -2.90572,1.15353 -3.7905,1.4903c-0.49376,0.18863 -1.39151,0.54417 -1.995,0.79009c-0.60349,0.2469 -1.54613,0.62614 -2.09475,0.84342c-0.54863,0.21727 -1.49126,0.59652 -2.09475,0.84342c-0.60349,0.24591 -1.50124,0.60145 -1.995,0.79009c-0.49376,0.18765 -1.39151,0.54319 -1.995,0.79009c-0.60349,0.24591 -1.45635,0.57775 -1.89525,0.73676c-0.4389,0.15901 -1.24688,0.47702 -1.7955,0.70713c-0.54863,0.22913 -5.93513,2.31101 -11.97001,4.62596c-6.03488,2.31496 -11.37649,4.37313 -11.87026,4.57362c-1.28079,0.51948 -2.75011,1.1002 -3.7905,1.49623c-0.49376,0.18863 -1.39151,0.54417 -1.995,0.79009c-0.60349,0.2469 -1.54613,0.62614 -2.09475,0.84342c-0.54863,0.21727 -1.44638,0.57281 -1.995,0.79009c-0.54863,0.21727 -1.40149,0.54911 -1.89525,0.73676c-1.19501,0.45628 -2.67031,1.04094 -3.89025,1.54363c-0.54863,0.22616 -2.97255,1.1555 -5.3865,2.06509c-5.11119,1.92683 -5.5062,2.08188 -7.44135,2.92234c-0.80199,0.34863 -1.58702,0.63306 -1.74563,0.63306c-0.1596,0 -1.29875,0.42467 -2.53365,0.94317c-1.23391,0.51849 -3.86033,1.56536 -5.83538,2.32582c-2.99749,1.15452 -14.36999,5.52271 -17.15701,6.59032c-0.4389,0.16888 -1.33665,0.53133 -1.995,0.80688c-0.65835,0.27554 -1.60099,0.65479 -2.09475,0.84342c-0.49376,0.18765 -1.34663,0.51948 -1.89525,0.73676c-0.54863,0.21727 -1.44638,0.57281 -1.995,0.79009c-0.54863,0.21727 -1.40149,0.54911 -1.89525,0.73676c-1.37755,0.52541 -2.79101,1.08933 -3.89025,1.55351c-0.54863,0.2311 -5.26182,2.06707 -10.47376,4.07883c-5.21194,2.01176 -9.47626,3.78156 -9.47626,3.93266c0,0.1511 3.45634,2.82654 7.68075,5.94442c4.22442,3.11788 7.77053,5.76073 7.88025,5.87134c0.76309,0.77429 3.62192,2.77024 3.96706,2.77024c0.23142,0 0.42194,0.13925 0.42194,0.31011c0,0.16987 0.53167,0.62121 1.18204,1.00144c0.65037,0.38023 1.41346,0.90761 1.69575,1.17229c0.51072,0.47899 6.20445,4.703 33.63073,24.95393c17.61187,13.00484 18.58344,13.72382 19.34253,14.32824c0.33416,0.26567 5.81443,4.31882 12.17848,9.00601c6.36405,4.68719 11.84033,8.73738 12.16951,9.00008c0.32918,0.26369 2.394,1.79844 4.5885,3.41219c7.51218,5.52271 13.16102,9.70129 13.76252,10.18127c0.33117,0.26369 7.87327,5.83973 16.761,12.39252c17.73556,13.07496 38.16238,28.18933 39.10202,28.93399c0.32918,0.26073 1.22693,0.90761 1.995,1.43697c0.76808,0.53035 1.48628,1.06464 1.596,1.18711c0.10973,0.12345 4.1496,3.12381 8.97751,6.66636c4.8279,3.54255 9.04733,6.65254 9.37651,6.91129c0.32918,0.25777 1.22693,0.90267 1.995,1.43203c0.76808,0.53035 1.48628,1.06761 1.596,1.19599c0.10973,0.12839 5.85433,4.40276 12.76601,9.49981c15.44131,11.38714 37.59879,27.77158 41.09902,30.3917c4.56257,3.41417 20.60038,15.25955 21.92506,16.19383c0.94563,0.66664 1.3955,0.78515 1.72667,0.45726c0.24638,-0.24394 0.83092,-0.44344 1.29875,-0.44344c0.46883,0 0.96857,-0.11654 1.11221,-0.25875c0.23541,-0.23209 3.80546,-1.52684 8.65033,-3.13566c0.98753,-0.32789 2.1546,-0.74663 2.5935,-0.93132c0.4389,-0.1837 1.33665,-0.51849 1.995,-0.74169c0.65835,-0.22419 2.72318,-0.93922 4.5885,-1.59005c1.86533,-0.65083 8.32913,-2.89863 14.36401,-4.99632c6.03488,-2.09768 12.49868,-4.34449 14.36401,-4.99434c1.86533,-0.64886 4.26831,-1.52487 5.33962,-1.9446c1.07231,-0.42072 2.15859,-0.76441 2.41395,-0.76441c2.37605,0 0.5606,-1.48536 -25.04026,-20.48697c-14.52161,-10.77976 -26.67317,-19.81539 -27.00234,-20.08106c-0.32918,-0.26567 -17.92509,-13.32384 -39.10202,-29.01794c-21.17694,-15.6941 -38.71998,-28.72264 -38.98432,-28.95374c-0.26434,-0.23011 -23.01234,-17.1291 -50.55134,-37.55286c-27.539,-20.42376 -50.25907,-37.53903 -50.48849,-38.03382c-0.94264,-2.03349 -0.48878,-2.29718 10.74807,-6.22293c4.71818,-1.64931 9.47626,-3.33022 10.57351,-3.73613c1.09725,-0.40591 3.61095,-1.29772 5.586,-1.98114c1.97505,-0.68441 4.3092,-1.51598 5.187,-1.8488c0.8778,-0.33282 2.58353,-0.92934 3.7905,-1.32636c3.74063,-1.22859 6.37503,-2.21422 6.65133,-2.48779c0.14564,-0.14419 0.64738,-0.26172 1.1162,-0.26172c0.46783,0 1.02144,-0.14123 1.22992,-0.31406c0.20848,-0.17283 1.09725,-0.54022 1.97505,-0.81675c0.8778,-0.27554 1.9551,-0.65874 2.394,-0.85033c0.4389,-0.19258 1.60598,-0.61331 2.5935,-0.93527c0.98753,-0.32295 3.32168,-1.14365 5.187,-1.82313c1.86533,-0.67948 5.09723,-1.82905 7.182,-2.55396c2.08478,-0.72491 5.85533,-2.06312 8.37901,-2.97369c2.52368,-0.91058 5.57603,-1.98114 6.783,-2.37915c1.20698,-0.39801 3.72068,-1.28192 5.586,-1.96534c1.86533,-0.68343 4.19948,-1.50314 5.187,-1.82115c0.98753,-0.31801 2.10772,-0.75157 2.48876,-0.96193c0.38105,-0.21036 1.01845,-0.3822 1.41645,-0.3822c0.398,0 0.89376,-0.14123 1.10224,-0.31406c0.20848,-0.17283 1.09725,-0.54022 1.97505,-0.81675c0.8778,-0.27554 1.9551,-0.65577 2.394,-0.84441c0.4389,-0.18765 2.41395,-0.89872 4.389,-1.58018c1.97505,-0.68145 3.9501,-1.38957 4.389,-1.57524c0.4389,-0.18567 1.60598,-0.59948 2.5935,-0.92144c0.98753,-0.32097 3.86033,-1.32932 6.384,-2.24089c2.52368,-0.91156 5.3067,-1.89522 6.1845,-2.18657c0.8778,-0.29134 3.66083,-1.26118 6.1845,-2.15595c2.52368,-0.89576 5.39648,-1.89423 6.384,-2.21916c0.98753,-0.32591 2.1546,-0.74268 2.5935,-0.92737c0.4389,-0.1837 1.42643,-0.54911 2.1945,-0.80984c0.76808,-0.26073 1.7556,-0.62219 2.1945,-0.80194c1.28678,-0.52738 6.66829,-2.39693 8.0997,-2.81271c1.74164,-0.50763 1.86533,-0.88984 3.05036,-9.42179c0.98054,-7.05746 1.4354,-10.18324 2.21146,-15.20918c0.2015,-1.30364 0.56658,-3.8813 0.81197,-5.72813c0.24539,-1.84683 0.60548,-4.33561 0.80099,-5.53061c0.19551,-1.19501 0.5576,-3.68378 0.80399,-5.53061c0.24738,-1.84683 0.61346,-4.10352 0.81396,-5.01409c0.2005,-0.91156 0.36509,-2.3515 0.36509,-3.19985c0,-0.84934 0.16658,-2.05917 0.36908,-2.68926c1.08827,-3.37664 0.36608,-7.03474 -0.96758,-4.89854" id="svg_5"/>
    <path stroke="null" fill-rule="evenodd" fill="#eff5fb" d="m339.51953,1.48635c-0.49376,0.09481 -0.89775,0.33677 -0.89775,0.53923c0,0.20246 -0.53865,0.36739 -1.197,0.36739c-0.65835,0 -1.197,0.17777 -1.197,0.39504c0,0.21727 -0.4379,0.39504 -0.97356,0.39504c-0.53566,0 -1.08528,0.17777 -1.22094,0.39504c-0.13566,0.21727 -0.59551,0.39504 -1.02144,0.39504c-0.42593,0 -0.77406,0.17777 -0.77406,0.39504c0,0.21727 -0.44888,0.39504 -0.9975,0.39504c-0.54863,0 -0.9975,0.17777 -0.9975,0.39504c0,0.21727 -0.53865,0.39504 -1.197,0.39504c-0.65835,0 -1.197,0.17777 -1.197,0.39504c0,0.21727 -0.3591,0.39504 -0.798,0.39504c-0.4389,0 -0.798,0.17777 -0.798,0.39504c0,0.21727 -0.53865,0.39504 -1.197,0.39504c-0.65835,0 -1.197,0.17777 -1.197,0.39504c0,0.21727 -0.3591,0.39504 -0.798,0.39504c-0.4389,0 -0.798,0.17777 -0.798,0.39504c0,0.21727 -0.53865,0.39504 -1.197,0.39504c-0.65835,0 -1.197,0.17777 -1.197,0.39504c0,0.21727 -0.53865,0.39504 -1.197,0.39504c-0.65835,0 -1.197,0.13827 -1.197,0.30715c0,0.16987 -1.12219,0.62022 -2.49375,1.00341c-1.37156,0.3822 -2.80597,0.86613 -3.18701,1.07452c-0.38105,0.20937 -0.96458,0.38023 -1.29675,0.38023c-0.33217,0 -0.60349,0.17777 -0.60349,0.39504c0,0.21727 -0.53865,0.39504 -1.197,0.39504c-0.65835,0 -1.197,0.17777 -1.197,0.39504c0,0.21727 -0.53865,0.39504 -1.197,0.39504c-0.65835,0 -1.197,0.17777 -1.197,0.39504c0,0.21727 -0.3591,0.39504 -0.798,0.39504c-0.4389,0 -0.798,0.17777 -0.798,0.39504c0,0.21727 -0.53865,0.39504 -1.197,0.39504c-0.65835,0 -1.197,0.17777 -1.197,0.39504c0,0.21727 -0.53865,0.39504 -1.197,0.39504c-0.65835,0 -1.197,0.17777 -1.197,0.39504c0,0.21727 -0.3591,0.39504 -0.798,0.39504c-0.4389,0 -0.798,0.17777 -0.798,0.39504c0,0.21727 -0.53865,0.39504 -1.197,0.39504c-0.65835,0 -1.197,0.17777 -1.197,0.39504c0,0.21727 -0.35411,0.39504 -0.78603,0.39504c-0.43192,0 -1.42543,0.35554 -2.20647,0.79009c-0.78104,0.43455 -1.77455,0.79009 -2.20647,0.79009c-0.43192,0 -0.78603,0.17777 -0.78603,0.39504c0,0.21727 -0.3591,0.39504 -0.798,0.39504c-0.4389,0 -0.798,0.17777 -0.798,0.39504c0,0.21727 -0.53865,0.39504 -1.197,0.39504c-0.65835,0 -1.197,0.17777 -1.197,0.39504c0,0.21727 -0.53865,0.39504 -1.197,0.39504c-0.65835,0 -1.197,0.17777 -1.197,0.39504c0,0.21727 -0.3591,0.39504 -0.798,0.39504c-0.4389,0 -0.798,0.17777 -0.798,0.39504c0,0.21727 -0.53865,0.39504 -1.197,0.39504c-0.65835,0 -1.197,0.17777 -1.197,0.39504c0,0.21727 -0.53865,0.39504 -1.197,0.39504c-0.65835,0 -1.197,0.17777 -1.197,0.39504c0,0.21727 -0.3591,0.39504 -0.798,0.39504c-0.4389,0 -0.798,0.17777 -0.798,0.39504c0,0.21727 -0.53865,0.39504 -1.197,0.39504c-0.65835,0 -1.197,0.17777 -1.197,0.39504c0,0.21727 -0.44888,0.39504 -0.9975,0.39504c-0.54863,0 -0.9975,0.17777 -0.9975,0.39504c0,0.21727 -0.3591,0.39504 -0.798,0.39504c-0.4389,0 -0.798,0.17777 -0.798,0.39504c0,0.21727 -0.53865,0.39504 -1.197,0.39504c-0.65835,0 -1.197,0.17777 -1.197,0.39504c0,0.21727 -0.49376,0.39603 -1.09725,0.39702c-0.60349,0.00198 -1.61196,0.26863 -2.24039,0.59257c-0.62843,0.32492 -1.47032,0.59059 -1.87131,0.59059c-0.401,0 -0.8399,0.17777 -0.97556,0.39504c-0.13566,0.21727 -0.67431,0.39504 -1.197,0.39504c-0.52269,0 -1.06134,0.17777 -1.197,0.39504c-0.13566,0.21727 -0.59551,0.39504 -1.02144,0.39504c-0.42593,0 -0.77406,0.17777 -0.77406,0.39504c0,0.21727 -0.4379,0.39504 -0.97356,0.39504c-0.53566,0 -1.08528,0.17777 -1.22094,0.39504c-0.13566,0.21727 -0.68528,0.39504 -1.22094,0.39504c-0.53566,0 -0.97356,0.17777 -0.97356,0.39504c0,0.21727 -0.3591,0.39504 -0.798,0.39504c-0.4389,0 -0.798,0.17777 -0.798,0.39504c0,0.21727 -0.53865,0.39504 -1.197,0.39504c-0.65835,0 -1.197,0.17777 -1.197,0.39504c0,0.21727 -0.3591,0.39504 -0.798,0.39504c-0.4389,0 -0.798,0.17777 -0.798,0.39504c0,0.21727 -0.53865,0.39504 -1.197,0.39504c-0.65835,0 -1.197,0.17777 -1.197,0.39504c0,0.21727 -0.53865,0.39504 -1.197,0.39504c-0.65835,0 -1.197,0.17777 -1.197,0.39504c0,0.21727 -0.3591,0.39504 -0.798,0.39504c-0.4389,0 -0.798,0.17777 -0.798,0.39504c0,0.21727 -0.53865,0.39504 -1.197,0.39504c-0.65835,0 -1.197,0.17777 -1.197,0.39504c0,0.21727 -0.4379,0.39504 -0.97356,0.39504c-0.53566,0 -1.08528,0.17777 -1.22094,0.39504c-0.13566,0.21727 -0.59551,0.39504 -1.02144,0.39504c-0.42593,0 -0.77406,0.17777 -0.77406,0.39504c0,0.21727 -0.44888,0.39504 -0.9975,0.39504c-0.54863,0 -0.9975,0.17777 -0.9975,0.39504c0,0.21727 -0.53865,0.39504 -1.197,0.39504c-0.65835,0 -1.197,0.17777 -1.197,0.39504c0,0.21727 -0.3591,0.39504 -0.798,0.39504c-0.4389,0 -0.798,0.17777 -0.798,0.39504c0,0.21727 -0.53865,0.39504 -1.197,0.39504c-0.65835,0 -1.197,0.17777 -1.197,0.39504c0,0.21727 -0.53865,0.39504 -1.197,0.39504c-0.65835,0 -1.197,0.17777 -1.197,0.39504c0,0.21727 -0.3591,0.39504 -0.798,0.39504c-0.4389,0 -0.798,0.17777 -0.798,0.39504c0,0.21727 -0.53865,0.39504 -1.197,0.39504c-0.65835,0 -1.197,0.17777 -1.197,0.39504c0,0.21727 -0.53865,0.39504 -1.197,0.39504c-0.65835,0 -1.197,0.14222 -1.197,0.31702c0,0.17382 -1.16708,0.64688 -2.5935,1.05082c-1.42643,0.40393 -2.5935,0.88391 -2.5935,1.06563c0,0.18271 -0.53865,0.33184 -1.197,0.33184c-0.65835,0 -1.197,0.17777 -1.197,0.39504c0,0.21727 -0.53865,0.39504 -1.197,0.39504c-0.65835,0 -1.197,0.17777 -1.197,0.39504c0,0.21727 -0.3591,0.39504 -0.798,0.39504c-0.4389,0 -0.798,0.17777 -0.798,0.39504c0,0.21727 -0.53865,0.39504 -1.197,0.39504c-0.65835,0 -1.197,0.17777 -1.197,0.39504c0,0.21727 -0.4379,0.39504 -0.97356,0.39504c-0.53566,0 -1.08528,0.17777 -1.22094,0.39504c-0.13566,0.21727 -0.59551,0.39504 -1.02144,0.39504c-0.42593,0 -0.77406,0.17777 -0.77406,0.39504c0,0.21727 -0.53865,0.39504 -1.197,0.39504c-0.65835,0 -1.197,0.17777 -1.197,0.39504c0,0.21727 -0.35411,0.39504 -0.78603,0.39504c-0.43192,0 -1.42543,0.35554 -2.20647,0.79009c-0.78104,0.43455 -1.77455,0.79009 -2.20647,0.79009c-0.43192,0 -0.78603,0.17777 -0.78603,0.39504c0,0.21727 -0.53865,0.39504 -1.197,0.39504c-0.65835,0 -1.197,0.17777 -1.197,0.39504c0,0.21727 -0.3591,0.39504 -0.798,0.39504c-0.4389,0 -0.798,0.17777 -0.798,0.39504c0,0.21727 -0.53865,0.39504 -1.197,0.39504c-0.65835,0 -1.197,0.17777 -1.197,0.39504c0,0.21727 -0.53865,0.39504 -1.197,0.39504c-0.65835,0 -1.197,0.17777 -1.197,0.39504c0,0.21727 -0.3591,0.39504 -0.798,0.39504c-0.4389,0 -0.798,0.17777 -0.798,0.39504c0,0.21727 -0.53865,0.39504 -1.197,0.39504c-0.65835,0 -1.197,0.17777 -1.197,0.39504c0,0.21727 -0.3591,0.39504 -0.798,0.39504c-0.4389,0 -0.798,0.17777 -0.798,0.39504c0,0.21727 -0.53865,0.39504 -1.197,0.39504c-0.65835,0 -1.197,0.17777 -1.197,0.39504c0,0.21727 -0.44888,0.39504 -0.9975,0.39504c-0.54863,0 -0.9975,0.17777 -0.9975,0.39504c0,0.21727 -0.3591,0.39504 -0.798,0.39504c-0.4389,0 -0.798,0.17777 -0.798,0.39504c0,0.21727 -0.53865,0.39504 -1.197,0.39504c-0.65835,0 -1.197,0.17777 -1.197,0.39504c0,0.21727 -0.53865,0.39504 -1.197,0.39504c-0.65835,0 -1.197,0.16197 -1.197,0.36048c0,0.19851 -0.76309,0.48492 -1.69575,0.63701c-0.93266,0.15209 -1.8753,0.40887 -2.09475,0.56985c-0.21945,0.16098 -1.25186,0.53528 -2.29425,0.83157c-1.04239,0.29628 -1.89525,0.6775 -1.89525,0.84737c0,0.16987 -0.4379,0.30912 -0.97356,0.30912c-0.53566,0 -1.08528,0.17777 -1.22094,0.39504c-0.13566,0.21727 -0.68528,0.39504 -1.22094,0.39504c-0.53566,0 -0.97356,0.17777 -0.97356,0.39504c0,0.21727 -0.3591,0.39504 -0.798,0.39504c-0.4389,0 -0.798,0.17777 -0.798,0.39504c0,0.21727 -0.53865,0.39504 -1.197,0.39504c-0.65835,0 -1.197,0.17777 -1.197,0.39504c0,0.21727 -0.53865,0.39504 -1.197,0.39504c-0.65835,0 -1.197,0.17777 -1.197,0.39504c0,0.21727 -0.3591,0.39504 -0.798,0.39504c-0.4389,0 -0.798,0.17777 -0.798,0.39504c0,0.21727 -0.53865,0.39504 -1.197,0.39504c-0.65835,0 -1.197,0.17777 -1.197,0.39504c0,0.21727 -0.53865,0.39504 -1.197,0.39504c-0.65835,0 -1.197,0.17777 -1.197,0.39504c0,0.21727 -0.3591,0.39504 -0.798,0.39504c-0.4389,0 -0.798,0.17777 -0.798,0.39504c0,0.21727 -0.53865,0.39504 -1.197,0.39504c-0.65835,0 -1.197,0.17777 -1.197,0.39504c0,0.21727 -0.3591,0.39504 -0.798,0.39504c-0.4389,0 -0.798,0.17777 -0.798,0.39504c0,0.21727 -0.4379,0.39504 -0.97356,0.39504c-0.53566,0 -1.08528,0.17777 -1.22094,0.39504c-0.13566,0.21727 -0.68528,0.39504 -1.22094,0.39504c-0.53566,0 -0.97356,0.17777 -0.97356,0.39504c0,0.21727 -0.3591,0.39504 -0.798,0.39504c-0.4389,0 -0.798,0.17777 -0.798,0.39504c0,0.21727 -0.53865,0.39504 -1.197,0.39504c-0.65835,0 -1.197,0.17777 -1.197,0.39504c0,0.21727 -0.53865,0.39504 -1.197,0.39504c-0.65835,0 -1.197,0.17777 -1.197,0.39504c0,0.21727 -0.3591,0.39504 -0.798,0.39504c-0.4389,0 -0.798,0.17777 -0.798,0.39504c0,0.21727 -0.53865,0.39504 -1.197,0.39504c-0.65835,0 -1.197,0.17777 -1.197,0.39504c0,0.21727 -0.53865,0.39504 -1.197,0.39504c-0.65835,0 -1.197,0.17777 -1.197,0.39504c0,0.21727 -0.3591,0.39504 -0.798,0.39504c-0.4389,0 -0.798,0.17777 -0.798,0.39504c0,0.21727 -0.52768,0.39504 -1.17306,0.39504c-0.64538,0 -1.27481,0.16197 -1.3985,0.36048c-0.12469,0.19851 -0.94264,0.48097 -1.81944,0.62713c-0.8768,0.14715 -1.59401,0.42862 -1.59401,0.62713c0,0.19851 -0.53865,0.36048 -1.197,0.36048c-0.65835,0 -1.197,0.17777 -1.197,0.39504c0,0.21727 -0.4379,0.39504 -0.97356,0.39504c-0.53566,0 -1.08528,0.17777 -1.22094,0.39504c-0.13566,0.21727 -0.59551,0.39504 -1.02144,0.39504c-0.42593,0 -0.77406,0.17777 -0.77406,0.39504c0,0.21727 -0.53865,0.39504 -1.197,0.39504c-0.65835,0 -1.197,0.17777 -1.197,0.39504c0,0.21727 -0.3591,0.39504 -0.798,0.39504c-0.4389,0 -0.798,0.17777 -0.798,0.39504c0,0.21727 -0.53865,0.39504 -1.197,0.39504c-0.65835,0 -1.197,0.17777 -1.197,0.39504c0,0.21727 -0.4379,0.39504 -0.97356,0.39504c-0.53566,0 -1.08528,0.17777 -1.22094,0.39504c-0.13566,0.21727 -0.59551,0.39504 -1.02144,0.39504c-0.42593,0 -0.77406,0.17777 -0.77406,0.39504c0,0.21727 -0.44888,0.39504 -0.9975,0.39504c-0.54863,0 -0.9975,0.17777 -0.9975,0.39504c0,0.21727 -0.53865,0.39504 -1.197,0.39504c-0.65835,0 -1.197,0.17777 -1.197,0.39504c0,0.21727 -0.3591,0.39504 -0.798,0.39504c-0.4389,0 -0.798,0.17777 -0.798,0.39504c0,0.21727 -0.53865,0.39504 -1.197,0.39504c-0.65835,0 -1.197,0.17777 -1.197,0.39504c0,0.21727 -0.53865,0.39504 -1.197,0.39504c-0.65835,0 -1.197,0.17777 -1.197,0.39504c0,0.21727 -0.3591,0.39504 -0.798,0.39504c-0.4389,0 -0.798,0.17777 -0.798,0.39504c0,0.21727 -0.53865,0.39504 -1.197,0.39504c-0.65835,0 -1.197,0.17777 -1.197,0.39504c0,0.21727 -0.53865,0.39504 -1.197,0.39504c-0.65835,0 -1.197,0.17777 -1.197,0.39504c0,0.21727 -0.3591,0.39504 -0.798,0.39504c-0.4389,0 -0.798,0.17777 -0.798,0.39504c0,0.21727 -0.44888,0.39504 -0.9975,0.39504c-0.54863,0 -0.9975,0.17777 -0.9975,0.39504c0,0.21727 -0.53865,0.39504 -1.197,0.39504c-0.65835,0 -1.197,0.17777 -1.197,0.39504c0,0.21727 -0.3591,0.39504 -0.798,0.39504c-0.4389,0 -0.798,0.17777 -0.798,0.39504c0,0.21727 -0.53865,0.39504 -1.197,0.39504c-0.65835,0 -1.197,0.17777 -1.197,0.39504c0,0.21727 -0.53865,0.39504 -1.197,0.39504c-0.65835,0 -1.197,0.17777 -1.197,0.39504c0,0.21727 -0.21546,0.39504 -0.4788,0.39504c-0.92967,0 -5.1072,1.36389 -5.1072,1.66807c0,0.16888 -0.4379,0.30715 -0.97356,0.30715c-0.53566,0 -1.08528,0.17777 -1.22094,0.39504c-0.13566,0.21727 -0.5596,0.39504 -0.94164,0.39504c-0.87281,0 -2.84188,0.88786 -2.84587,1.28389c-0.002,0.16296 -0.54164,0.29628 -1.19999,0.29628c-0.65835,0 -1.197,0.17777 -1.197,0.39504c0,0.21727 -0.53865,0.39504 -1.197,0.39504c-0.65835,0 -1.197,0.17777 -1.197,0.39504c0,0.21727 -0.3591,0.39504 -0.798,0.39504c-0.4389,0 -0.798,0.17777 -0.798,0.39504c0,0.21727 -0.53865,0.39504 -1.197,0.39504c-0.65835,0 -1.197,0.17777 -1.197,0.39504c0,0.21727 -0.53865,0.39504 -1.197,0.39504c-0.65835,0 -1.197,0.17777 -1.197,0.39504c0,0.21727 -0.3591,0.39504 -0.798,0.39504c-0.4389,0 -0.798,0.17777 -0.798,0.39504c0,0.21727 -0.53865,0.39504 -1.197,0.39504c-0.65835,0 -1.197,0.17777 -1.197,0.39504c0,0.21727 -0.35411,0.39504 -0.78603,0.39504c-0.43192,0 -1.42543,0.35554 -2.20647,0.79009c-0.78104,0.43455 -1.77455,0.79009 -2.20647,0.79009c-0.43192,0 -0.78603,0.17777 -0.78603,0.39504c0,0.21727 -0.53865,0.39504 -1.197,0.39504c-0.65835,0 -1.197,0.17777 -1.197,0.39504c0,0.21727 -0.3591,0.39504 -0.798,0.39504c-0.4389,0 -0.798,0.17777 -0.798,0.39504c0,0.21727 -0.53865,0.39504 -1.197,0.39504c-0.65835,0 -1.197,0.17777 -1.197,0.39504c0,0.21727 -0.3591,0.39504 -0.798,0.39504c-0.4389,0 -0.798,0.17777 -0.798,0.39504c0,0.21727 -0.53865,0.39504 -1.197,0.39504c-0.65835,0 -1.197,0.17777 -1.197,0.39504c0,0.21727 -0.53865,0.39504 -1.197,0.39504c-0.65835,0 -1.197,0.17777 -1.197,0.39504c0,0.21727 -0.3591,0.39504 -0.798,0.39504c-0.4389,0 -0.798,0.17777 -0.798,0.39504c0,0.21727 -0.53865,0.39504 -1.197,0.39504c-0.65835,0 -1.197,0.17777 -1.197,0.39504c0,0.21727 -0.36708,0.39504 -0.81596,0.39504c-1.5571,0 -2.77505,1.72634 -2.77505,3.93266c0,1.09625 -0.17955,1.993 -0.399,1.993c-0.22843,0 -0.399,1.18513 -0.399,2.76531c0,1.58018 -0.17057,2.76531 -0.399,2.76531c-0.22843,0 -0.399,1.18513 -0.399,2.76531c0,1.58018 -0.17057,2.76531 -0.399,2.76531c-0.22544,0 -0.399,1.11896 -0.399,2.56778c0,1.44882 -0.17357,2.56778 -0.399,2.56778c-0.22843,0 -0.399,1.18513 -0.399,2.76531c0,1.58018 -0.17057,2.76531 -0.399,2.76531c-0.22843,0 -0.399,1.18513 -0.399,2.76531c0,1.58018 -0.17057,2.76531 -0.399,2.76531c-0.22843,0 -0.399,1.18513 -0.399,2.76531c0,1.58018 -0.17057,2.76531 -0.399,2.76531c-0.22544,0 -0.399,1.11896 -0.399,2.56778c0,1.44882 -0.17357,2.56778 -0.399,2.56778c-0.22843,0 -0.399,1.18513 -0.399,2.76531c0,1.58018 -0.17057,2.76531 -0.399,2.76531c-0.22743,0 -0.399,1.17427 -0.399,2.73272c0,1.50215 -0.18254,2.79197 -0.40598,2.86604c-0.2384,0.07901 -0.50873,2.74358 -0.65536,6.45205l-0.24938,6.31872l1.21396,1.28389c0.66833,0.70614 1.43042,1.28389 1.69276,1.28389c0.26234,0 0.98054,0.53331 1.596,1.18513c0.61546,0.65182 1.3167,1.18513 1.56009,1.18513c0.24339,0 1.00548,0.53331 1.69475,1.18513c0.68927,0.65182 1.3965,1.18513 1.57206,1.18513c0.17556,0 0.80299,0.44442 1.3955,0.98761c0.59152,0.54319 1.24688,0.98761 1.45635,0.98761c0.20948,0 0.88279,0.53331 1.49825,1.18513c0.61546,0.65182 1.33366,1.18513 1.596,1.18513c0.26234,0 0.98054,0.53331 1.596,1.18513c0.61546,0.65182 1.33366,1.18513 1.596,1.18513c0.26234,0 0.98054,0.53331 1.596,1.18513c0.61546,0.65182 1.33366,1.18513 1.596,1.18513c0.26234,0 0.98054,0.53331 1.596,1.18513c0.61546,0.65182 1.33366,1.18513 1.596,1.18513c0.26234,0 0.98054,0.53331 1.596,1.18513c0.61546,0.65182 1.33366,1.18513 1.596,1.18513c0.26234,0 0.98054,0.53331 1.596,1.18513c0.61546,0.65182 1.24688,1.18513 1.40448,1.18513c0.15661,0 0.89177,0.48887 1.63291,1.08637c0.74015,0.5975 1.9561,1.57524 2.70023,2.17274c0.74513,0.5975 1.57206,1.08637 1.8374,1.08637c0.26633,0 0.98653,0.53331 1.60199,1.18513c0.61546,0.65182 1.33366,1.18513 1.596,1.18513c0.26234,0 0.98054,0.53331 1.596,1.18513c0.61546,0.65182 1.33366,1.18513 1.596,1.18513c0.26234,0 0.98054,0.53331 1.596,1.18513c0.61546,0.65182 1.33366,1.18513 1.596,1.18513c0.26234,0 0.98054,0.53331 1.596,1.18513c0.61546,0.65182 1.28179,1.18513 1.48229,1.18513c0.1995,0 0.8798,0.53331 1.51022,1.18513c0.63042,0.65182 1.29476,1.18513 1.47431,1.18513c0.18055,0 0.89177,0.53331 1.58104,1.18513c0.68927,0.65182 1.40747,1.18513 1.596,1.18513c0.18853,0 0.90673,0.53331 1.596,1.18513c0.68927,0.65182 1.41246,1.18513 1.60897,1.18513c0.19651,0 0.75311,0.37035 1.2379,0.82367c0.48479,0.45331 1.41944,1.10118 2.07779,1.44092c0.65835,0.33974 1.48727,0.94712 1.84238,1.34907c0.35511,0.40294 0.86683,0.73182 1.13615,0.73182c0.27032,0 0.99451,0.53331 1.60997,1.18513c0.61546,0.65182 1.36558,1.18513 1.66782,1.18513c0.30224,0 0.80897,0.35554 1.12518,0.79009c0.31621,0.43455 0.73316,0.79009 0.92568,0.79009c0.19252,0 0.85286,0.53331 1.46832,1.18513c0.61546,0.65182 1.33366,1.18513 1.596,1.18513c0.26234,0 0.98054,0.53331 1.596,1.18513c0.61546,0.65182 1.33366,1.18513 1.596,1.18513c0.26234,0 0.98054,0.53331 1.596,1.18513c0.61546,0.65182 1.33366,1.18513 1.596,1.18513c0.26234,0 0.98054,0.53331 1.596,1.18513c0.61546,0.65182 1.3167,1.18513 1.56009,1.18513c0.24339,0 1.00548,0.53331 1.69475,1.18513c0.68927,0.65182 1.41845,1.18513 1.62094,1.18513c0.20249,0 0.61845,0.22221 0.92468,0.4938c1.18204,1.04983 1.7556,1.48141 1.96707,1.48141c0.1207,0 0.78304,0.53331 1.47231,1.18513c0.68927,0.65182 1.42343,1.18513 1.63191,1.18513c0.20848,0 0.88179,0.53331 1.49725,1.18513c0.61546,0.65182 1.33366,1.18513 1.596,1.18513c0.26234,0 0.98054,0.53331 1.596,1.18513c0.61546,0.65182 1.33366,1.18513 1.596,1.18513c0.26234,0 0.98054,0.53331 1.596,1.18513c0.61546,0.65182 1.33366,1.18513 1.596,1.18513c0.26234,0 0.98054,0.53331 1.596,1.18513c0.61546,0.65182 1.33366,1.18513 1.596,1.18513c0.26234,0 0.98054,0.53331 1.596,1.18513c0.61546,0.65182 1.31271,1.18513 1.55012,1.18513c0.23741,0 0.92768,0.43356 1.53515,0.96292c2.83689,2.47495 4.04087,3.38256 4.48776,3.38256c0.26733,0 0.98852,0.53331 1.60398,1.18513c0.61546,0.65182 1.33366,1.18513 1.596,1.18513c0.26234,0 0.98054,0.53331 1.596,1.18513c0.61546,0.65182 1.33366,1.18513 1.596,1.18513c0.26234,0 0.98054,0.53331 1.596,1.18513c0.61546,0.65182 1.33366,1.18513 1.596,1.18513c0.26234,0 0.98054,0.53331 1.596,1.18513c0.61546,0.65182 1.33366,1.18513 1.596,1.18513c0.26234,0 0.98054,0.53331 1.596,1.18513c0.61546,0.65182 1.2359,1.18513 1.37855,1.18513c0.14364,0 0.83491,0.53232 1.53615,1.18316c0.70124,0.65083 1.41944,1.18414 1.596,1.18513c0.17656,0.00099 0.89476,0.5343 1.596,1.18513c0.70124,0.65083 1.41745,1.18414 1.59101,1.18513c0.17456,0.00099 0.80099,0.4464 1.39251,0.98958c0.59252,0.54319 1.31969,0.98761 1.61795,0.98761c0.29825,0 1.04538,0.53331 1.66084,1.18513c0.61546,0.65182 1.33366,1.18513 1.596,1.18513c0.26234,0 0.98054,0.53331 1.596,1.18513c0.61546,0.65182 1.33366,1.18513 1.596,1.18513c0.26234,0 0.98054,0.53331 1.596,1.18513c0.61546,0.65182 1.32668,1.18513 1.58204,1.18513c0.25536,0 0.9177,0.53331 1.47131,1.18513c0.55461,0.65182 1.17306,1.18513 1.37456,1.18513c0.20249,0 0.93067,0.53331 1.61994,1.18513c0.68927,0.65182 1.45535,1.18513 1.70373,1.18513c0.24838,0 0.71022,0.35554 1.02643,0.79009c0.31621,0.43455 0.82294,0.79009 1.12518,0.79009c0.30224,0 1.05236,0.53331 1.66782,1.18513c0.61546,0.65182 1.3167,1.18513 1.56009,1.18513c0.24339,0 1.00548,0.53331 1.69475,1.18513c0.68927,0.65182 1.41845,1.18513 1.62094,1.18513c0.20249,0 0.61845,0.22221 0.92468,0.4938c1.33665,1.18711 1.77455,1.48141 2.20248,1.48141c0.25037,0 0.9576,0.53331 1.57306,1.18513c0.61546,0.65182 1.24388,1.18513 1.3965,1.18513c0.15262,0 0.78104,0.53331 1.3965,1.18513c0.61546,0.65182 1.33366,1.18513 1.596,1.18513c0.26234,0 0.98054,0.53331 1.596,1.18513c0.61546,0.65182 1.33366,1.18513 1.596,1.18513c0.26234,0 0.98054,0.53331 1.596,1.18513c0.61546,0.65182 1.33366,1.18513 1.596,1.18513c0.26234,0 0.98054,0.53331 1.596,1.18513c0.61546,0.65182 1.33366,1.18513 1.596,1.18513c0.26234,0 0.98054,0.53331 1.596,1.18513c0.61546,0.65182 1.3167,1.18513 1.56009,1.18513c0.24339,0 1.00548,0.53331 1.69475,1.18513c0.68927,0.65182 1.3965,1.18513 1.57206,1.18513c0.17556,0 0.80299,0.44442 1.3955,0.98761c0.59152,0.54319 1.24688,0.98761 1.45635,0.98761c0.20948,0 0.88279,0.53331 1.49825,1.18513c0.61546,0.65182 1.33366,1.18513 1.596,1.18513c0.26234,0 0.98054,0.53331 1.596,1.18513c0.61546,0.65182 1.33366,1.18513 1.596,1.18513c0.26234,0 0.98054,0.53331 1.596,1.18513c0.61546,0.65182 1.33366,1.18513 1.596,1.18513c0.26234,0 0.98054,0.53331 1.596,1.18513c0.61546,0.65182 1.33366,1.18513 1.596,1.18513c0.26234,0 0.98054,0.53331 1.596,1.18513c0.61546,0.65182 1.33366,1.18513 1.596,1.18513c0.26234,0 0.98054,0.53331 1.596,1.18513c0.61546,0.65182 1.3157,1.18513 1.5561,1.18513c0.2414,0 0.4389,0.14222 0.4389,0.31604c0,0.17382 0.798,0.81577 1.77356,1.42611c0.97556,0.61034 2.07979,1.44586 2.45585,1.85671c0.37506,0.41085 0.94164,0.74663 1.25885,0.74663c0.31621,0 1.0783,0.53331 1.69376,1.18513c0.61546,0.65182 1.33366,1.18513 1.596,1.18513c0.26234,0 0.98054,0.53331 1.596,1.18513c0.61546,0.65182 1.33366,1.18513 1.596,1.18513c0.26234,0 0.98054,0.53331 1.596,1.18513c0.61546,0.65182 1.33366,1.18513 1.596,1.18513c0.26234,0 0.98054,0.53331 1.596,1.18513c0.61546,0.65182 1.2359,1.18513 1.37855,1.18513c0.14364,0 0.83491,0.53232 1.53615,1.18316c0.70124,0.65083 1.41146,1.18414 1.57805,1.18513c0.16658,0.00099 0.86583,0.53528 1.5551,1.18711c0.68927,0.65182 1.40747,1.18513 1.596,1.18513c0.18853,0 0.90673,0.53331 1.596,1.18513c0.68927,0.65182 1.41346,1.18513 1.60997,1.18513c0.19651,0 0.84089,0.44442 1.43241,0.98761c0.59252,0.54319 1.31969,0.98761 1.61795,0.98761c0.29825,0 1.04538,0.53331 1.66084,1.18513c0.61546,0.65182 1.36558,1.18513 1.66782,1.18513c0.30224,0 0.80897,0.35554 1.12518,0.79009c0.31621,0.43455 0.82294,0.79009 1.12518,0.79009c0.30224,0 1.05236,0.53331 1.66782,1.18513c0.61546,0.65182 1.24388,1.18513 1.3965,1.18513c0.15262,0 0.78104,0.53331 1.3965,1.18513c0.61546,0.65182 1.33366,1.18513 1.596,1.18513c0.26234,0 0.98054,0.53331 1.596,1.18513c0.61546,0.65182 1.33366,1.18513 1.596,1.18513c0.26234,0 0.98054,0.53331 1.596,1.18513c0.61546,0.65182 1.33366,1.18513 1.596,1.18513c0.26234,0 0.98054,0.53331 1.596,1.18513c0.61546,0.65182 1.3167,1.18513 1.56009,1.18513c0.24339,0 1.00548,0.53331 1.69475,1.18513c0.68927,0.65182 1.41845,1.18513 1.62094,1.18513c0.20249,0 0.61845,0.22221 0.92468,0.4938c1.18204,1.04983 1.7556,1.48141 1.96707,1.48141c0.1207,0 0.78304,0.53331 1.47231,1.18513c0.68927,0.65182 1.42343,1.18513 1.63191,1.18513c0.20848,0 0.88179,0.53331 1.49725,1.18513c0.61546,0.65182 1.33366,1.18513 1.596,1.18513c0.26234,0 0.98054,0.53331 1.596,1.18513c0.61546,0.65182 1.32867,1.18513 1.58503,1.18513c0.25736,0 0.7591,0.28838 1.11521,0.64195c0.78204,0.77429 8.51666,0.60639 8.78499,-0.19061c0.08379,-0.24789 0.49676,-0.45134 0.9167,-0.45134c0.42095,0 0.76508,-0.17777 0.76508,-0.39504c0,-0.21727 0.53865,-0.39504 1.197,-0.39504c0.65835,0 1.197,-0.17777 1.197,-0.39504c0,-0.21727 0.53865,-0.39504 1.197,-0.39504c0.65835,0 1.197,-0.17777 1.197,-0.39504c0,-0.21727 0.53865,-0.39504 1.197,-0.39504c0.65835,0 1.197,-0.17777 1.197,-0.39504c0,-0.21727 0.53865,-0.39504 1.197,-0.39504c0.65835,0 1.197,-0.17777 1.197,-0.39504c0,-0.21727 0.53865,-0.39504 1.197,-0.39504c0.65835,0 1.197,-0.17777 1.197,-0.39504c0,-0.21727 0.3591,-0.39504 0.798,-0.39504c0.4389,0 0.798,-0.17777 0.798,-0.39504c0,-0.21727 0.53865,-0.39504 1.197,-0.39504c0.65835,0 1.197,-0.17777 1.197,-0.39504c0,-0.21727 0.53865,-0.39504 1.197,-0.39504c0.65835,0 1.197,-0.17777 1.197,-0.39504c0,-0.21727 0.44888,-0.39504 0.9975,-0.39504c0.54863,0 0.9975,-0.17777 0.9975,-0.39504c0,-0.21727 0.39501,-0.39504 0.8778,-0.39504c1.22992,0 5.5062,-1.29574 5.5062,-1.66807c0,-0.16888 0.53865,-0.30715 1.197,-0.30715c0.65835,0 1.197,-0.17777 1.197,-0.39504c0,-0.21727 0.53865,-0.39504 1.197,-0.39504c0.65835,0 1.197,-0.17777 1.197,-0.39504c0,-0.21727 0.4379,-0.39504 0.97356,-0.39504c0.53566,0 1.08528,-0.17777 1.22094,-0.39504c0.13566,-0.21727 0.67431,-0.39504 1.197,-0.39504c0.52269,0 1.06134,-0.17777 1.197,-0.39504c0.13566,-0.21727 0.68528,-0.39504 1.22094,-0.39504c0.53566,0 0.97356,-0.17777 0.97356,-0.39504c0,-0.21727 0.3591,-0.39504 0.798,-0.39504c0.4389,0 0.798,-0.17777 0.798,-0.39504c0,-0.21727 0.53865,-0.39504 1.197,-0.39504c0.65835,0 1.197,-0.17777 1.197,-0.39504c0,-0.21727 0.53865,-0.39504 1.197,-0.39504c0.65835,0 1.197,-0.17777 1.197,-0.39504c0,-0.21727 0.53865,-0.39504 1.197,-0.39504c0.65835,0 1.197,-0.17777 1.197,-0.39504c0,-0.21727 0.53865,-0.39504 1.197,-0.39504c0.65835,0 1.197,-0.17777 1.197,-0.39504c0,-0.21727 0.53865,-0.39504 1.197,-0.39504c0.65835,0 1.197,-0.17777 1.197,-0.39504c0,-0.21727 0.3591,-0.39504 0.798,-0.39504c0.4389,0 0.798,-0.17777 0.798,-0.39504c0,-0.21727 0.53865,-0.39504 1.197,-0.39504c0.65835,0 1.197,-0.17777 1.197,-0.39504c0,-0.21727 0.52668,-0.39504 1.17007,-0.39504c0.81995,0 1.24588,-0.23703 1.42343,-0.79009c0.13965,-0.43455 0.42095,-0.79009 0.62543,-0.79009c0.20449,0 0.37207,-1.24439 0.37207,-2.76531c0,-1.58018 0.17057,-2.76531 0.399,-2.76531c0.22544,0 0.399,-1.11896 0.399,-2.56778c0,-1.44882 0.17357,-2.56778 0.399,-2.56778c0.22843,0 0.399,-1.18513 0.399,-2.76531c0,-1.58018 0.17057,-2.76531 0.399,-2.76531c0.22843,0 0.399,-1.18513 0.399,-2.76531c0,-1.58018 0.17057,-2.76531 0.399,-2.76531c0.21945,0 0.399,-0.96687 0.399,-2.14904c0,-1.18217 0.17955,-2.25965 0.399,-2.39397c0.21945,-0.13431 0.399,-1.38957 0.399,-2.78901c0,-1.43302 0.17456,-2.54408 0.399,-2.54408c0.22843,0 0.399,-1.18513 0.399,-2.76531c0,-1.58018 0.17057,-2.76531 0.399,-2.76531c0.22843,0 0.399,-1.18513 0.399,-2.76531c0,-1.58018 0.17057,-2.76531 0.399,-2.76531c0.22544,0 0.399,-1.11896 0.399,-2.56778c0,-1.44882 0.17357,-2.56778 0.399,-2.56778c0.22145,0 0.399,-1.05378 0.399,-2.37026c0,-1.31648 0.17756,-2.37026 0.399,-2.37026c0.22843,0 0.399,-1.18513 0.399,-2.76531c0,-1.58018 0.17057,-2.76531 0.399,-2.76531c0.22444,0 0.399,-1.11106 0.399,-2.54408c0,-1.39944 0.17955,-2.65469 0.399,-2.78901c0.21945,-0.13431 0.399,-1.38957 0.399,-2.78901c0,-1.43302 0.17456,-2.54408 0.399,-2.54408c0.22843,0 0.399,-1.18513 0.399,-2.76531c0,-1.58018 0.17057,-2.76531 0.399,-2.76531c0.22145,0 0.399,-1.05378 0.399,-2.37026c0,-1.31648 0.17756,-2.37026 0.399,-2.37026c0.22444,0 0.399,-1.11106 0.399,-2.54408c0,-1.39944 0.17955,-2.65469 0.399,-2.78901c0.21945,-0.13431 0.399,-1.38957 0.399,-2.78901c0,-1.43302 0.17456,-2.54408 0.399,-2.54408c0.22843,0 0.399,-1.18513 0.399,-2.76531c0,-1.58018 0.17057,-2.76531 0.399,-2.76531c0.22145,0 0.399,-1.05378 0.399,-2.37026c0,-1.31648 0.17756,-2.37026 0.399,-2.37026c0.22444,0 0.399,-1.11106 0.399,-2.54408c0,-1.39944 0.17955,-2.65469 0.399,-2.78901c0.21945,-0.13431 0.399,-1.38957 0.399,-2.78901c0,-1.43302 0.17456,-2.54408 0.399,-2.54408c0.22843,0 0.399,-1.18513 0.399,-2.76531c0,-1.58018 0.17057,-2.76531 0.399,-2.76531c0.22344,0 0.399,-1.09328 0.399,-2.48878c0,-1.36883 0.16359,-2.65766 0.36409,-2.86407c0.39401,-0.40591 0.57755,-1.84189 1.29775,-10.15262c0.25835,-2.98752 0.61945,-5.43185 0.80099,-5.43185c0.18155,0 0.33017,-1.1555 0.33017,-2.56778c0,-1.44882 0.17357,-2.56778 0.399,-2.56778c0.22843,0 0.399,-1.18513 0.399,-2.76531c0,-1.58018 0.17057,-2.76531 0.399,-2.76531c0.22145,0 0.399,-1.05378 0.399,-2.37026c0,-1.31648 0.17756,-2.37026 0.399,-2.37026c0.22444,0 0.399,-1.11106 0.399,-2.54408c0,-1.39944 0.17955,-2.65469 0.399,-2.78901c0.21945,-0.13431 0.399,-1.38957 0.399,-2.78901c0,-1.43302 0.17456,-2.54408 0.399,-2.54408c0.22843,0 0.399,-1.18513 0.399,-2.76531c0,-1.58018 0.17057,-2.76531 0.399,-2.76531c0.22843,0 0.399,-1.18513 0.399,-2.76531c0,-1.58018 0.17057,-2.76531 0.399,-2.76531c0.21945,0 0.399,-0.96687 0.399,-2.14904c0,-1.18217 0.17955,-2.25965 0.399,-2.39397c0.21945,-0.13431 0.399,-1.38957 0.399,-2.78901c0,-1.43302 0.17456,-2.54408 0.399,-2.54408c0.22843,0 0.399,-1.18513 0.399,-2.76531c0,-1.58018 0.17057,-2.76531 0.399,-2.76531c0.22843,0 0.399,-1.18513 0.399,-2.76531c0,-1.58018 0.17057,-2.76531 0.399,-2.76531c0.22544,0 0.399,-1.11896 0.399,-2.56778c0,-1.44882 0.17357,-2.56778 0.399,-2.56778c0.22145,0 0.399,-1.05378 0.399,-2.37026c0,-1.31648 0.17756,-2.37026 0.399,-2.37026c0.22843,0 0.399,-1.18513 0.399,-2.76531c0,-1.58018 0.17057,-2.76531 0.399,-2.76531c0.22444,0 0.399,-1.11106 0.399,-2.54408c0,-1.39944 0.17955,-2.65469 0.399,-2.78901c0.21945,-0.13431 0.399,-1.38957 0.399,-2.78901c0,-1.43302 0.17456,-2.54408 0.399,-2.54408c0.22145,0 0.399,-1.05378 0.399,-2.37026c0,-1.31648 0.17756,-2.37026 0.399,-2.37026c0.22843,0 0.399,-1.18513 0.399,-2.76531c0,-1.58018 0.17057,-2.76531 0.399,-2.76531c0.22444,0 0.399,-1.11106 0.399,-2.54408c0,-1.39944 0.17955,-2.65469 0.399,-2.78901c0.21945,-0.13431 0.399,-1.38957 0.399,-2.78901c0,-1.43302 0.17456,-2.54408 0.399,-2.54408c0.22843,0 0.399,-1.18513 0.399,-2.76531c0,-1.58018 0.17057,-2.76531 0.399,-2.76531c0.22145,0 0.399,-1.04588 0.399,-2.34656c0,-1.29081 0.17955,-2.45717 0.399,-2.59149c0.21945,-0.13431 0.399,-1.28982 0.399,-2.56778c0,-1.27797 0.1616,-2.42261 0.3581,-2.54309c0.19651,-0.12049 0.48778,-2.61914 0.64638,-5.55333c0.1586,-2.93419 0.44688,-5.33507 0.6394,-5.33507c0.19352,0 0.35112,-1.1555 0.35112,-2.56778c0,-1.44882 0.17357,-2.56778 0.399,-2.56778c0.22145,0 0.399,-1.05378 0.399,-2.37026c0,-1.31648 0.17756,-2.37026 0.399,-2.37026c0.22843,0 0.399,-1.18513 0.399,-2.76531c0,-1.58018 0.17057,-2.76531 0.399,-2.76531c0.22843,0 0.399,-1.18513 0.399,-2.76531c0,-1.58018 0.17057,-2.76531 0.399,-2.76531c0.22544,0 0.399,-1.11896 0.399,-2.56778c0,-1.44882 0.17357,-2.56778 0.399,-2.56778c0.22843,0 0.399,-1.18513 0.399,-2.76531c0,-1.58018 0.17057,-2.76531 0.399,-2.76531c0.22145,0 0.399,-1.05378 0.399,-2.37026c0,-1.31648 0.17756,-2.37026 0.399,-2.37026c0.22444,0 0.399,-1.11106 0.399,-2.54408c0,-1.39944 0.17955,-2.65469 0.399,-2.78901c0.21945,-0.13431 0.399,-1.38957 0.399,-2.78901c0,-1.43302 0.17456,-2.54408 0.399,-2.54408c0.22843,0 0.399,-1.18513 0.399,-2.76531c0,-1.58018 0.17057,-2.76531 0.399,-2.76531c0.22743,0 0.399,-1.17427 0.399,-2.73272c0,-1.50215 0.17756,-2.79098 0.39401,-2.86407c0.46883,-0.15703 1.0384,-11.1985 0.65536,-12.71053c-0.16259,-0.63898 -0.54164,-1.04983 -0.96857,-1.04983c-0.38703,0 -0.96159,-0.35554 -1.2778,-0.79009c-0.31621,-0.43455 -0.85486,-0.79009 -1.197,-0.79009c-0.34214,0 -0.88079,-0.35554 -1.197,-0.79009c-0.31621,-0.43455 -0.81197,-0.79009 -1.10224,-0.79009c-0.29027,0 -0.91271,-0.35554 -1.38353,-0.79009c-0.47082,-0.43455 -1.09226,-0.79009 -1.37954,-0.79009c-0.28828,0 -0.52369,-0.15012 -0.52369,-0.33282c0,-0.18271 -0.62843,-0.66762 -1.3965,-1.07748c-0.76808,-0.40986 -1.3965,-0.88194 -1.3965,-1.04983c0,-0.16789 -0.3192,-0.30517 -0.71022,-0.30517c-0.39002,0 -0.96857,-0.35554 -1.28478,-0.79009c-0.31621,-0.43455 -0.85486,-0.79009 -1.197,-0.79009c-0.34214,0 -0.88079,-0.35554 -1.197,-0.79009c-0.31621,-0.43455 -0.85486,-0.79009 -1.197,-0.79009c-0.34214,0 -0.88079,-0.35554 -1.197,-0.79009c-0.31621,-0.43455 -0.82294,-0.79009 -1.12518,-0.79009c-0.30224,0 -1.05236,-0.53331 -1.66782,-1.18513c-0.61546,-0.65182 -1.36558,-1.18513 -1.66782,-1.18513c-0.30224,0 -0.80897,-0.35554 -1.12518,-0.79009c-0.31621,-0.43455 -0.85486,-0.79009 -1.197,-0.79009c-0.34214,0 -0.88079,-0.35554 -1.197,-0.79009c-0.31621,-0.43455 -0.82892,-0.79009 -1.13815,-0.79009c-0.31022,0 -0.85386,-0.31208 -1.20897,-0.69429c-0.35511,-0.38122 -1.13915,-0.94514 -1.74263,-1.2513c-0.60349,-0.30715 -1.09725,-0.70614 -1.09725,-0.88687c0,-0.17974 -0.26933,-0.32789 -0.5985,-0.32789c-0.32918,0 -0.5985,-0.14814 -0.5985,-0.32789c0,-0.18073 -0.49376,-0.58071 -1.09725,-0.88885c-0.60349,-0.30912 -1.44538,-0.87206 -1.87031,-1.25229c-0.42593,-0.38023 -1.00947,-0.69133 -1.29675,-0.69133c-0.28828,0 -0.52369,-0.1432 -0.52369,-0.319c0,-0.17579 -0.7182,-0.63306 -1.596,-1.01625c-0.8778,-0.38319 -1.596,-0.86218 -1.596,-1.06366c0,-0.20147 -0.3192,-0.3664 -0.71022,-0.3664c-0.39002,0 -0.96857,-0.35554 -1.28478,-0.79009c-0.31621,-0.43455 -0.85486,-0.79009 -1.197,-0.79009c-0.34214,0 -0.88079,-0.35554 -1.197,-0.79009c-0.31621,-0.43455 -0.82294,-0.79009 -1.12518,-0.79009c-0.30224,0 -1.05236,-0.53331 -1.66782,-1.18513c-0.61546,-0.65182 -1.3157,-1.18513 -1.5561,-1.18513c-0.2414,0 -0.4389,-0.17777 -0.4389,-0.39504c0,-0.21727 -0.26933,-0.39504 -0.5985,-0.39504c-0.32918,0 -0.5985,-0.17777 -0.5985,-0.39504c0,-0.21727 -0.19252,-0.39504 -0.42793,-0.39504c-0.23441,0 -0.69626,-0.26665 -1.02543,-0.59257c-0.58154,-0.57578 -5.24386,-0.76737 -7.6239,-0.31406m14.99642,11.05135c8.75107,5.87035 17.71262,11.87798 26.79885,17.9656c2.74313,1.83794 5.89423,3.9534 7.00245,4.70102c1.10822,0.74762 2.29325,1.53771 2.6334,1.75498c0.34015,0.21727 1.65186,1.09921 2.91569,1.9604l2.29625,1.56536l-0.27032,1.79251c-0.30723,2.03744 -0.76508,5.18396 -1.38054,9.49586c-0.23242,1.62956 -0.58853,4.02945 -0.79102,5.33309c-0.20249,1.30364 -0.74813,4.94792 -1.21296,8.0984c-3.72566,25.25515 -4.85883,32.90418 -5.18102,34.96137c-0.41097,2.63297 -1.00947,6.62488 -1.64089,10.96246c-1.22493,8.39962 -1.57505,10.74321 -2.37605,15.90051c-0.74015,4.76126 -1.14713,7.49102 -1.59301,10.66618c-0.24339,1.73819 -0.60848,4.13808 -0.81097,5.33309c-0.20249,1.19501 -0.65636,4.21709 -1.00847,6.71574c-0.35212,2.49865 -0.80698,5.60962 -1.01147,6.91327c-0.20349,1.30364 -0.54663,3.61465 -0.76309,5.13557c-0.21646,1.52092 -0.57556,3.92081 -0.799,5.33309c-0.22244,1.41228 -0.56758,3.72329 -0.76608,5.13557c-0.93665,6.65846 -1.73665,12.05377 -2.43191,16.39432c-0.41795,2.60729 -1.21097,7.85149 -1.76159,11.65379c-0.55062,3.8023 -1.62094,11.09085 -2.37804,16.19679c-0.7581,5.10594 -1.65884,11.23899 -2.00298,13.62901c-1.11521,7.74977 -1.49126,10.23558 -1.85236,12.24636c-0.19551,1.08637 -0.64339,4.01957 -0.99551,6.51822c-0.62244,4.40573 -0.97256,6.79772 -1.74862,11.95007c-0.20449,1.35796 -0.57556,3.89118 -0.82493,5.62937c-0.24938,1.73819 -0.61446,4.22697 -0.81296,5.53061c-0.19751,1.30364 -0.52967,3.52577 -0.73815,4.93805c-0.76109,5.15631 -2.10772,14.0843 -2.47181,16.39432c-0.3601,2.28533 -0.62843,4.11734 -1.53316,10.46866c-0.23242,1.62956 -0.60349,4.11833 -0.82493,5.53061c-0.22045,1.41228 -0.67631,4.52325 -1.01147,6.91327c-0.33516,2.39001 -0.76907,5.23433 -0.96458,6.3207c-0.37406,2.08287 -0.82892,5.10495 -1.84538,12.24636c-0.34015,2.39001 -1.2389,8.52307 -1.99899,13.62901c-0.7591,5.10594 -1.64488,11.15011 -1.96907,13.43149c-0.96359,6.79475 -1.53316,9.87609 -1.82343,9.87609c-0.22145,0 -31.37838,-22.90069 -33.48211,-24.61024c-0.32918,-0.26764 -1.22693,-0.92539 -1.995,-1.46265c-0.76808,-0.53726 -1.66583,-1.18809 -1.995,-1.44685c-1.05835,-0.83255 -10.59844,-7.92853 -25.53602,-18.9937c-8.00993,-5.93356 -14.83283,-11.00888 -15.16201,-11.27751c-0.32918,-0.26962 -1.22693,-0.92835 -1.995,-1.46561c-0.76808,-0.53726 -1.66583,-1.19007 -1.995,-1.4508c-0.72917,-0.57676 -0.43691,-0.36048 -39.50102,-29.32805c-7.79048,-5.77653 -14.43383,-10.72247 -14.76301,-10.98913c-0.32918,-0.26764 -6.97253,-5.19976 -14.76301,-10.96148c-7.79048,-5.76171 -14.43383,-10.70075 -14.76301,-10.97629c-0.32918,-0.27456 -1.22693,-0.93922 -1.995,-1.47648c-0.76808,-0.53726 -1.66583,-1.19106 -1.995,-1.45376c-0.85885,-0.68639 -34.97935,-25.93857 -42.31098,-31.31413c-3.3925,-2.4868 -6.25732,-4.63189 -6.36705,-4.7662c-0.10973,-0.13431 -1.06334,-0.85527 -2.11869,-1.60091c-1.05536,-0.74663 -2.50472,-1.8014 -3.22193,-2.34458c-0.7172,-0.54319 -2.09774,-1.5782 -3.06831,-2.30014c-2.6334,-1.95744 -2.68527,-2.28335 -0.47182,-2.95987c1.04438,-0.319 3.42442,-1.12489 5.28975,-1.78955c6.60545,-2.35545 12.59145,-4.45609 14.36401,-5.03977c0.98753,-0.32591 2.1546,-0.74861 2.5935,-0.94119c0.4389,-0.1916 1.5162,-0.57479 2.394,-0.85033c0.8778,-0.27653 1.76657,-0.64392 1.97505,-0.81675c0.20848,-0.17283 0.75611,-0.31406 1.21695,-0.31406c0.46085,0 1.00847,-0.14123 1.21695,-0.31406c0.20848,-0.17283 1.09725,-0.54022 1.97505,-0.81675c0.8778,-0.27554 1.9551,-0.65874 2.394,-0.85033c0.4389,-0.19258 1.60598,-0.61331 2.5935,-0.93527c0.98753,-0.32295 3.32168,-1.14464 5.187,-1.8251c7.18101,-2.62309 12.56951,-4.27734 12.95953,-3.98007c0.22344,0.17086 2.56158,1.89127 5.19498,3.82304c2.6334,1.93176 5.05733,3.72625 5.3865,3.98698c0.32918,0.26073 3.56108,2.64581 7.182,5.3005c3.62093,2.65371 9.81541,7.20856 13.76551,10.12102c8.63437,6.36613 7.37053,5.43481 17.15701,12.64436c4.389,3.23343 10.85281,7.99075 14.36401,10.57335c9.54109,7.01696 61.63057,45.56138 63.24154,46.79688c3.71968,2.85419 5.985,2.40779 5.985,-1.17921c0,-0.67157 0.16259,-1.96633 0.36209,-2.87789c0.1985,-0.91058 0.56359,-3.07838 0.80997,-4.81657c0.24638,-1.73819 0.62543,-4.31585 0.84089,-5.72813c0.99351,-6.50341 2.77405,-18.67273 3.15011,-21.52988c0.22843,-1.73819 0.58154,-4.22697 0.78503,-5.53061c0.20349,-1.30364 0.65237,-4.32573 0.9985,-6.71574c0.34613,-2.39001 0.73017,-4.96768 0.85286,-5.72813c0.37905,-2.34854 0.99052,-6.38885 1.40648,-9.28353c0.21845,-1.52092 0.5576,-3.83192 0.75511,-5.13557c0.19751,-1.30364 0.55661,-3.70354 0.798,-5.33309c0.2414,-1.62956 0.6005,-4.02945 0.798,-5.33309c0.19751,-1.30364 0.54364,-3.61465 0.76907,-5.13557c0.22643,-1.52092 0.60449,-4.00969 0.84089,-5.53061c0.23641,-1.52092 0.60249,-3.96525 0.81396,-5.43185c0.21047,-1.4666 0.55561,-3.86649 0.76608,-5.33309c0.36409,-2.53026 0.67132,-4.54103 1.62992,-10.66618c0.23042,-1.4666 0.58653,-3.91093 0.79401,-5.43185c0.20648,-1.52092 0.47182,-3.3875 0.58753,-4.14796c0.11671,-0.76046 0.399,-2.62704 0.62843,-4.14796c0.22843,-1.52092 0.57556,-3.74304 0.77107,-4.93805c0.19451,-1.19501 0.54663,-3.5949 0.78204,-5.33309c0.23541,-1.73819 0.59052,-4.22697 0.79002,-5.53061c0.1985,-1.30364 0.54763,-3.61465 0.77606,-5.13557c2.37505,-15.84916 2.92866,-19.61787 3.24088,-22.05826c0.1985,-1.55647 0.55361,-4.07389 0.79002,-5.59481c0.23641,-1.52092 0.59451,-3.92081 0.797,-5.33309c0.20249,-1.41228 0.56259,-3.81217 0.8,-5.33309c0.2384,-1.52092 0.59252,-3.83192 0.78703,-5.13557c0.8399,-5.62246 1.22992,-8.26728 1.60498,-10.8637c0.50274,-3.48132 1.1561,-7.85149 1.596,-10.66618c0.18653,-1.19501 0.53865,-3.50601 0.78204,-5.13557c0.24239,-1.62956 0.60249,-4.02945 0.8,-5.33309c0.19751,-1.30364 0.54364,-3.61465 0.76907,-5.13557c0.22643,-1.52092 0.58553,-3.92081 0.799,-5.33309c0.68429,-4.52819 1.26184,-8.4253 1.6379,-11.06123c0.59052,-4.13808 1.8354,-12.4577 2.393,-15.99927c0.20549,-1.30364 0.5586,-3.69662 0.78503,-5.3163c0.4389,-3.1406 0.73915,-4.36227 1.07231,-4.36227c0.11272,0 4.09574,2.60926 8.85082,5.79924m-82.08133,75.28349c0.02594,0.27159 0.00299,0.67157 -0.05087,0.88885c-0.05486,0.21727 -0.26135,1.63943 -0.46085,3.16035c-0.40299,3.08529 -0.95361,7.00314 -1.52717,10.8637c-0.20948,1.41228 -0.55262,3.72329 -0.76209,5.13557c-0.21047,1.41228 -0.58553,3.98994 -0.83391,5.72813c-1.14214,7.98482 -1.65086,11.44541 -2.37704,16.19679c-0.45386,2.96678 -1.06932,7.38139 -1.58004,11.34467c-0.45486,3.52873 -0.88379,4.50449 -2.13066,4.85015c-0.49376,0.13728 -1.25685,0.4069 -1.69575,0.59948c-0.4389,0.19258 -1.60598,0.61627 -2.5935,0.94119c-0.98753,0.32492 -3.86033,1.33031 -6.384,2.23298c-2.52368,0.90366 -6.29423,2.23298 -8.37901,2.95394c-2.08478,0.71997 -5.85533,2.04435 -8.37901,2.94209c-2.52368,0.89774 -5.39648,1.89917 -6.384,2.2241c-0.98753,0.32591 -2.1546,0.74861 -2.5935,0.94119c-0.4389,0.1916 -1.5162,0.57479 -2.394,0.85033c-0.8778,0.27653 -1.76657,0.64392 -1.97505,0.81675c-0.20848,0.17283 -0.70424,0.31406 -1.10224,0.31406c-0.398,0 -1.08029,0.17777 -1.5162,0.39504c-0.43591,0.21727 -1.15012,0.57281 -1.58603,0.79009c-0.43591,0.21727 -1.06633,0.39504 -1.40149,0.39504c-0.33516,0 -0.96558,0.17777 -1.40149,0.39504c-0.43591,0.21727 -1.15012,0.57281 -1.58603,0.79009c-0.43591,0.21727 -1.14314,0.39504 -1.57206,0.39504c-0.42893,0 -0.89077,0.17777 -1.02643,0.39504c-0.13566,0.21727 -0.5975,0.39504 -1.02643,0.39504c-0.42893,0 -1.09127,0.15703 -1.47231,0.34863c-1.23391,0.62121 -2.64936,1.17921 -4.48377,1.76683c-1.78553,0.57183 -4.66132,1.61178 -6.1845,2.23496c-0.4389,0.17974 -1.60598,0.59257 -2.5935,0.91749c-3.53913,1.16439 -12.23235,4.19339 -15.56101,5.42198c-1.86533,0.68836 -3.79848,1.34117 -4.29524,1.4508c-0.49676,0.11061 -1.00149,0.35653 -1.12119,0.54812c-0.1187,0.19061 -0.64439,0.34764 -1.16708,0.34764c-0.52269,0 -1.06134,0.17777 -1.197,0.39504c-0.13566,0.21727 -0.5975,0.39504 -1.02643,0.39504c-0.42893,0 -1.09127,0.15703 -1.47231,0.34863c-1.17007,0.5896 -2.61445,1.15649 -4.28427,1.68091c-0.8778,0.27653 -1.76657,0.64392 -1.97505,0.81675c-0.20848,0.17283 -0.78104,0.31406 -1.27281,0.31406c-0.49177,0 -1.00548,0.17777 -1.14114,0.39504c-0.13566,0.21727 -0.5975,0.39504 -1.02643,0.39504c-0.42893,0 -1.09127,0.15703 -1.47231,0.34863c-0.93266,0.4701 -2.396,1.0518 -4.08476,1.62659c-0.76808,0.26073 -1.7556,0.62614 -2.1945,0.80984c-0.4389,0.18468 -1.60598,0.59454 -2.5935,0.91058c-0.98753,0.31604 -2.5137,0.84934 -3.3915,1.18414c-0.8778,0.33579 -4.01993,1.42808 -6.9825,2.42754c-5.189,1.75103 -8.89571,3.07147 -10.57351,3.76674c-0.4389,0.18172 -1.96508,0.7091 -3.3915,1.17229c-1.42643,0.46319 -2.9526,0.9965 -3.3915,1.18513c-0.4389,0.18863 -1.5162,0.56985 -2.394,0.84638c-0.8778,0.27653 -1.77555,0.61232 -1.995,0.74466c-0.21945,0.13333 -1.20698,0.48492 -2.1945,0.7812c-5.6678,1.70461 -5.26182,2.3436 7.3815,11.64688c5.48625,4.03636 10.24433,7.55719 10.57351,7.82582c0.32918,0.26764 1.22693,0.91946 1.995,1.44882c0.76808,0.53035 1.48628,1.06958 1.596,1.19896c0.10973,0.12938 0.82793,0.66269 1.596,1.18513c0.76808,0.52245 1.48628,1.05575 1.596,1.18513c0.10973,0.12938 0.82793,0.66269 1.596,1.18513c0.76808,0.52245 1.48628,1.05575 1.596,1.18513c0.10973,0.12938 0.82793,0.66269 1.596,1.18513c0.76808,0.52245 1.48628,1.05575 1.596,1.18513c0.10973,0.12938 0.82793,0.66269 1.596,1.18513c0.76808,0.52245 1.48628,1.05575 1.596,1.18513c0.10973,0.12938 3.7905,2.88678 8.1795,6.12713c4.389,3.23936 8.06978,5.99479 8.1795,6.12219c0.10973,0.12839 0.82793,0.66367 1.596,1.19007c0.76808,0.52738 1.57605,1.09921 1.7955,1.27204c0.21945,0.17184 3.54113,2.63099 7.3815,5.46247c3.84038,2.83246 7.25183,5.36568 7.581,5.62839c0.32918,0.26369 1.22693,0.91255 1.995,1.44191c0.76808,0.53035 1.48628,1.06958 1.596,1.19896c0.10973,0.12938 0.82793,0.66269 1.596,1.18513c0.76808,0.52245 1.48628,1.05575 1.596,1.18513c0.10973,0.12938 0.82793,0.66861 1.596,1.19896c0.76808,0.52936 1.66583,1.18513 1.995,1.45771c0.32918,0.27258 4.81793,3.61268 9.97501,7.4209c5.15708,3.80921 9.64583,7.14733 9.97501,7.41695c0.32918,0.2706 1.22693,0.9244 1.995,1.45376c0.76808,0.53035 1.48628,1.06958 1.596,1.19896c0.10973,0.12938 0.82793,0.66269 1.596,1.18513c0.76808,0.52245 1.48628,1.05575 1.596,1.18513c0.10973,0.12938 0.82793,0.66861 1.596,1.19896c0.76808,0.52936 1.66583,1.17723 1.995,1.43993c1.23092,0.98168 5.67777,4.2961 6.52964,4.86694c0.8379,0.56096 6.55258,4.79484 7.83437,5.80418c0.32918,0.25974 6.25433,4.66349 13.16701,9.78721c6.91268,5.12273 12.83783,9.53537 13.16701,9.80499c0.32918,0.26962 1.22693,0.92638 1.995,1.45969c0.76808,0.53232 1.63391,1.19698 1.92418,1.47549c0.28928,0.27851 0.65037,0.50664 0.80199,0.50664c0.15062,0 0.72119,0.40492 1.26782,0.89971c0.54663,0.49578 1.62194,1.33525 2.39001,1.86658c0.76808,0.53035 1.57605,1.11501 1.7955,1.29871c0.21945,0.18271 8.92763,6.64266 19.35151,14.3549c10.42388,7.71224 19.4772,14.4112 20.11959,14.88722c0.64139,0.47504 2.07779,1.58215 3.192,2.46013c1.11321,0.87798 3.73065,2.8453 5.81543,4.37215c10.14159,7.42781 16.60739,12.22759 17.07222,12.67202c0.28229,0.2706 1.05137,0.80688 1.71071,1.19204c1.98004,1.15847 1.42144,2.0246 -2.02493,3.13566c-1.64588,0.53133 -3.3516,1.12094 -3.7905,1.31253c-0.4389,0.19061 -1.60598,0.61133 -2.5935,0.93428c-0.98753,0.32295 -4.6683,1.58906 -8.1795,2.8137c-3.5112,1.22464 -7.73063,2.6705 -9.37651,3.21368c-1.64588,0.54319 -3.3516,1.14563 -3.7905,1.3392c-0.4389,0.19456 -1.5162,0.57874 -2.394,0.85428c-0.8778,0.27653 -1.76657,0.64392 -1.97505,0.81675c-0.20848,0.17283 -0.78104,0.31406 -1.27281,0.31406c-0.49177,0 -1.00548,0.17777 -1.14114,0.39504c-0.13566,0.21727 -0.5975,0.39504 -1.02643,0.39504c-0.42893,0 -1.13615,0.17777 -1.57206,0.39504c-0.43591,0.21727 -1.15012,0.57281 -1.58603,0.79009c-0.43591,0.21727 -1.06633,0.39504 -1.40149,0.39504c-0.33516,0 -0.96558,0.17777 -1.40149,0.39504c-0.43591,0.21727 -1.15012,0.57281 -1.58603,0.79009c-0.43591,0.21727 -1.1182,0.39504 -1.5162,0.39504c-0.398,0 -0.89376,0.14715 -1.10224,0.32591c-0.20848,0.17974 -1.18703,0.56788 -2.17455,0.8612c-0.98753,0.29431 -1.97505,0.65775 -2.1945,0.80589c-0.21945,0.14913 -0.84788,0.36245 -1.3965,0.47504c-0.54863,0.1116 -1.82144,0.51948 -2.82991,0.90465l-1.83141,0.70219l-1.75959,-1.20982c-0.96658,-0.66565 -2.12567,-1.55548 -2.57455,-1.97818c-0.44888,-0.42171 -1.00748,-0.83848 -1.24089,-0.92539c-0.23342,-0.0879 -1.03341,-0.65281 -1.77755,-1.25525c-0.74414,-0.60343 -5.84136,-4.39387 -11.32762,-8.42233c-5.48625,-4.02945 -10.37999,-7.66879 -10.87575,-8.08852c-0.49576,-0.41973 -1.03441,-0.76638 -1.197,-0.77132c-0.16259,-0.00494 -0.99451,-0.63207 -1.84837,-1.39352c-0.85286,-0.76046 -2.06483,-1.68387 -2.69325,-2.05126c-0.62743,-0.3664 -1.14114,-0.80688 -1.14114,-0.97675c0,-0.17086 -0.16958,-0.31011 -0.37706,-0.31011c-0.20848,0 -5.90919,-4.10154 -12.66826,-9.11366c-6.76006,-5.01311 -12.74008,-9.44352 -13.2887,-9.84548c-0.54863,-0.40294 -1.90922,-1.41228 -3.02442,-2.24385c-5.09723,-3.8023 -16.81188,-12.48437 -26.1026,-19.34233c-10.82089,-7.98877 -35.83521,-26.44324 -39.50102,-29.14238c-1.20698,-0.88885 -2.28428,-1.7135 -2.394,-1.833c-0.10973,-0.1195 -0.82793,-0.65083 -1.596,-1.18118c-0.76808,-0.52936 -1.66583,-1.17822 -1.995,-1.44092c-0.32918,-0.2627 -3.29175,-2.46013 -6.5835,-4.88373c-3.29175,-2.42261 -6.43388,-4.74349 -6.9825,-5.1573c-0.54863,-0.41381 -2.793,-2.09274 -4.9875,-3.73119c-2.1945,-1.63844 -4.49474,-3.36182 -5.1102,-3.82896c-1.10623,-0.83848 -7.48824,-5.53654 -17.70763,-13.03447c-2.88178,-2.11447 -5.51219,-4.11438 -5.84535,-4.44424c-0.33416,-0.32986 -0.72219,-0.59948 -0.86284,-0.59948c-0.14065,0 -0.49277,-0.22221 -0.78204,-0.4938c-0.84688,-0.79601 -1.92019,-1.61079 -3.5102,-2.66655c-0.81795,-0.54319 -1.48927,-1.12094 -1.49027,-1.28389c-0.002,-0.16296 -0.16858,-0.29628 -0.37107,-0.29628c-0.20249,0 -4.46681,-3.03492 -9.47626,-6.74537c-5.00945,-3.70946 -9.55705,-7.07523 -10.10568,-7.47818c-2.75111,-2.02065 -24.29512,-17.93005 -25.29961,-18.68261c-0.6384,-0.47899 -1.38852,-1.0923 -1.66782,-1.36389c-0.2783,-0.27159 -0.69925,-0.4938 -0.93366,-0.4938c-0.23541,0 -0.42793,-0.13925 -0.42793,-0.31011c0,-0.16987 -0.53167,-0.62121 -1.18204,-1.00144c-0.65037,-0.38023 -1.41346,-0.91354 -1.69575,-1.18414c-0.28229,-0.27159 -1.14214,-0.92341 -1.91021,-1.44882c-0.76808,-0.52541 -1.48628,-1.06168 -1.596,-1.19106c-0.10973,-0.12938 -0.82793,-0.66269 -1.596,-1.18513c-0.76808,-0.52245 -1.48628,-1.04785 -1.596,-1.16735c-0.10973,-0.1195 -2.26433,-1.74214 -4.788,-3.60477c-19.42134,-14.33515 -23.54101,-17.44118 -23.54101,-17.7503c0,-0.4543 1.77755,-1.24538 7.98,-3.55046c1.86533,-0.6933 3.84038,-1.44487 4.389,-1.67104c1.48927,-0.61232 2.89574,-1.16439 3.7905,-1.48931c0.8768,-0.31801 2.20248,-0.83848 3.89025,-1.52684c0.60349,-0.2469 1.50124,-0.60244 1.995,-0.79009c0.49376,-0.18863 1.4364,-0.56788 2.09475,-0.84342c0.65835,-0.27554 1.64588,-0.67552 2.1945,-0.88885c0.54863,-0.21332 1.30972,-0.54516 1.69076,-0.73774c0.38105,-0.1916 0.8768,-0.34863 1.10124,-0.34863c0.22444,0 1.25984,-0.37332 2.29924,-0.82959c2.53066,-1.11007 2.11869,-0.94811 13.46227,-5.29161c10.48772,-4.01562 10.9745,-4.20327 12.56851,-4.83435c0.54863,-0.21727 1.44638,-0.57281 1.995,-0.79009c0.54863,-0.21727 1.44638,-0.57281 1.995,-0.79009c0.54863,-0.21727 1.44638,-0.57874 1.995,-0.80391c0.54863,-0.22517 2.0748,-0.81181 3.3915,-1.30266c1.3167,-0.49183 2.57355,-1.01032 2.793,-1.15254c0.21945,-0.1432 1.20698,-0.50171 2.1945,-0.797c0.98753,-0.2953 1.97505,-0.6538 2.1945,-0.797c0.21945,-0.14222 1.4763,-0.66367 2.793,-1.15847c1.3167,-0.49479 2.93265,-1.1318 3.591,-1.41524c0.65835,-0.28344 2.00498,-0.8128 2.9925,-1.17624c2.46383,-0.9086 3.22991,-1.20488 4.389,-1.69671c0.89975,-0.38122 4.70421,-1.83498 10.77301,-4.11636c1.20698,-0.45331 2.36507,-0.97477 2.57355,-1.15748c0.20848,-0.1837 0.75611,-0.33381 1.21695,-0.33381c0.46085,0 1.00847,-0.15012 1.21695,-0.33381c0.20848,-0.18271 1.45635,-0.73379 2.77305,-1.22365c1.3167,-0.48887 2.79799,-1.04983 3.29175,-1.24636c0.49376,-0.19653 1.34663,-0.5343 1.89525,-0.75157c0.54863,-0.21727 1.44638,-0.57281 1.995,-0.79009c0.54863,-0.21727 1.44638,-0.57281 1.995,-0.79009c0.54863,-0.21727 1.40149,-0.54911 1.89525,-0.73676c0.49376,-0.18863 1.4364,-0.56788 2.09475,-0.84342c0.65835,-0.27554 1.60099,-0.65479 2.09475,-0.84342c0.49376,-0.18765 1.39151,-0.54319 1.995,-0.79009c1.3566,-0.55306 2.19749,-0.87502 4.48875,-1.72042c0.98753,-0.36344 2.33415,-0.89477 2.9925,-1.18019c0.65835,-0.28443 5.68575,-2.23891 11.17201,-4.34153c10.73011,-4.11339 11.0144,-4.22302 12.66826,-4.89755c0.60349,-0.2469 1.50124,-0.60244 1.995,-0.79009c1.13615,-0.43356 2.61046,-1.01724 3.89025,-1.54067c0.54863,-0.22419 1.62593,-0.62516 2.394,-0.88984c0.76808,-0.26468 1.93515,-0.71207 2.5935,-0.99452c0.65835,-0.28246 2.00498,-0.81181 2.9925,-1.17526c2.29126,-0.84539 3.13215,-1.16735 4.48875,-1.72042c0.60349,-0.2469 1.54613,-0.62614 2.09475,-0.84342c2.44088,-0.96687 3.23689,-1.29969 3.88526,-1.62659c0.38105,-0.1916 0.8768,-0.34863 1.10124,-0.34863c0.22444,0 1.17007,-0.33875 2.09974,-0.75355c0.93067,-0.41381 5.28276,-2.11743 9.67177,-3.78452c8.96753,-3.40725 8.86878,-3.36874 11.46727,-4.50844c1.0394,-0.45628 2.0748,-0.82959 2.29924,-0.82959c0.22444,0 0.7202,-0.15703 1.10124,-0.34863c0.78503,-0.39504 2.69425,-1.19501 3.88526,-1.62659c0.8768,-0.31801 2.20248,-0.83848 3.89025,-1.52684c1.3965,-0.57084 2.84687,-1.14464 3.99,-1.58018c0.49376,-0.18863 1.39151,-0.54417 1.995,-0.79009c0.60349,-0.2469 1.50124,-0.61331 1.995,-0.81478c0.49376,-0.20147 5.3865,-2.08682 10.87276,-4.18944c5.48625,-2.10262 10.51366,-4.05809 11.17201,-4.34548c0.65835,-0.28739 2.09475,-0.82268 3.192,-1.19106c1.09725,-0.36739 2.7132,-0.98168 3.591,-1.36586c0.8778,-0.38319 2.6733,-1.10217 3.99,-1.59696c1.3167,-0.49578 2.57355,-1.01724 2.793,-1.15945c0.21945,-0.1432 1.20698,-0.50171 2.1945,-0.797c0.98753,-0.2953 1.97505,-0.66367 2.1945,-0.81873c0.35212,-0.24888 1.42144,-0.5817 2.29425,-0.71602c0.16459,-0.02469 0.3202,0.17678 0.34613,0.44837m-10.42089,65.4785c0,1.31648 -0.17756,2.37026 -0.399,2.37026c-0.22843,0 -0.399,1.18513 -0.399,2.76531c0,1.58018 -0.17057,2.76531 -0.399,2.76531c-0.22544,0 -0.399,1.11896 -0.399,2.56778c0,1.44882 -0.17357,2.56778 -0.399,2.56778c-0.22843,0 -0.399,1.18513 -0.399,2.76531c0,1.58018 -0.17057,2.76531 -0.399,2.76531c-0.22843,0 -0.399,1.18513 -0.399,2.76531c0,1.58018 -0.17057,2.76531 -0.399,2.76531c-0.22444,0 -0.399,1.11106 -0.399,2.54408c0,1.39944 -0.17955,2.65469 -0.399,2.78901c-0.21945,0.13431 -0.399,1.38957 -0.399,2.78901c0,1.43302 -0.17456,2.54408 -0.399,2.54408c-0.22843,0 -0.399,1.18513 -0.399,2.76531c0,1.58018 -0.17057,2.76531 -0.399,2.76531c-0.22843,0 -0.399,1.18513 -0.399,2.76531c0,1.58018 -0.17057,2.76531 -0.399,2.76531c-0.21945,0 -0.399,0.96687 -0.399,2.14904c0,1.18217 -0.17955,2.25965 -0.399,2.39397c-0.21945,0.13431 -0.399,1.3787 -0.399,2.76531c0,1.3866 -0.17955,2.63099 -0.399,2.76531c-0.21945,0.13431 -0.399,1.3787 -0.399,2.76531c0,1.3866 -0.17955,2.63099 -0.399,2.76531c-0.21945,0.13431 -0.399,1.38957 -0.399,2.78901c0,1.39944 -0.16459,2.54408 -0.36608,2.54408c-0.2015,0 -0.46085,1.19995 -0.57556,2.66655c-0.11471,1.4666 -0.38603,4.0887 -0.60249,5.8269c-0.21646,1.73819 -0.42095,3.51589 -0.45386,3.95044c-0.03292,0.43554 -0.15062,0.56788 -0.26135,0.29628c-0.11072,-0.27159 -0.36708,-0.4938 -0.57057,-0.4938c-0.20349,0 -0.93266,-0.53331 -1.62194,-1.18513c-0.68927,-0.65182 -1.42343,-1.18513 -1.63191,-1.18513c-0.20848,0 -0.88179,-0.53331 -1.49725,-1.18513c-0.61546,-0.65182 -1.36558,-1.18513 -1.66782,-1.18513c-0.30224,0 -0.80897,-0.35554 -1.12518,-0.79009c-0.31621,-0.43455 -0.82294,-0.79009 -1.12518,-0.79009c-0.30224,0 -1.05236,-0.53331 -1.66782,-1.18513c-0.61546,-0.65182 -1.33366,-1.18513 -1.596,-1.18513c-0.26234,0 -0.98054,-0.53331 -1.596,-1.18513c-0.61546,-0.65182 -1.32368,-1.18513 -1.57406,-1.18513c-0.25037,0 -0.93965,-0.44442 -1.53116,-0.98761c-0.59252,-0.54319 -1.38054,-0.98761 -1.75161,-0.98761c-0.37107,0 -0.78005,-0.3269 -0.90872,-0.72688c-0.12768,-0.39998 -0.72319,-0.97773 -1.32368,-1.28389c-0.5995,-0.30616 -1.56608,-1.04588 -2.14762,-1.64338c-0.58254,-0.5975 -1.27381,-1.08637 -1.53615,-1.08637c-0.26234,0 -0.98054,-0.53331 -1.596,-1.18513c-0.61546,-0.65182 -1.33366,-1.18513 -1.596,-1.18513c-0.26234,0 -0.98054,-0.53331 -1.596,-1.18513c-0.61546,-0.65182 -1.33366,-1.18513 -1.596,-1.18513c-0.26234,0 -0.98054,-0.53331 -1.596,-1.18513c-0.61546,-0.65182 -1.33366,-1.18513 -1.596,-1.18513c-0.26234,0 -0.98054,-0.53331 -1.596,-1.18513c-0.61546,-0.65182 -1.33366,-1.18513 -1.596,-1.18513c-0.26234,0 -0.98054,-0.53331 -1.596,-1.18513c-0.61546,-0.65182 -1.28378,-1.18513 -1.48727,-1.18513c-0.20249,0 -0.79002,-0.44442 -1.30573,-0.98761c-0.51571,-0.54319 -1.22493,-0.98761 -1.57705,-0.98761c-0.35312,0 -0.89975,-0.35554 -1.21595,-0.79009c-0.31621,-0.43455 -0.82294,-0.79009 -1.12518,-0.79009c-0.30224,0 -1.05236,-0.53331 -1.66782,-1.18513c-0.61546,-0.65182 -1.33366,-1.18513 -1.596,-1.18513c-0.26234,0 -0.98054,-0.53331 -1.596,-1.18513c-0.61546,-0.65182 -1.33366,-1.18513 -1.596,-1.18513c-0.26234,0 -0.98054,-0.53331 -1.596,-1.18513c-0.61546,-0.65182 -1.33366,-1.18513 -1.596,-1.18513c-0.26234,0 -0.98054,-0.53331 -1.596,-1.18513c-0.61546,-0.65182 -1.31371,-1.18513 -1.55311,-1.18513c-0.2394,0 -0.94962,-0.53331 -1.57904,-1.18513c-0.62942,-0.65182 -1.26084,-1.18513 -1.40348,-1.18513c-0.14264,0 -0.82294,-0.53331 -1.51221,-1.18513c-0.68927,-0.65182 -1.49525,-1.18513 -1.79151,-1.18513c-0.29726,0 -0.53965,-0.14222 -0.53965,-0.31604c0,-0.17382 -0.76309,-0.79503 -1.69575,-1.38068c-0.93266,-0.58565 -2.21645,-1.50907 -2.85285,-2.05225l-1.1571,-0.98761l1.25685,-0.24888c0.69127,-0.13728 1.25685,-0.40393 1.25685,-0.59454c0,-0.18962 0.53865,-0.34566 1.197,-0.34566c0.65835,0 1.197,-0.17777 1.197,-0.39504c0,-0.21727 0.53865,-0.39504 1.197,-0.39504c0.65835,0 1.197,-0.17777 1.197,-0.39504c0,-0.21727 0.4379,-0.39504 0.97356,-0.39504c0.53566,0 1.08528,-0.17777 1.22094,-0.39504c0.13566,-0.21727 0.68528,-0.39504 1.22094,-0.39504c0.53566,0 0.97356,-0.17777 0.97356,-0.39504c0,-0.21727 0.3591,-0.39504 0.798,-0.39504c0.4389,0 0.798,-0.17777 0.798,-0.39504c0,-0.21727 0.53865,-0.39504 1.197,-0.39504c0.65835,0 1.197,-0.17777 1.197,-0.39504c0,-0.21727 0.53865,-0.39504 1.197,-0.39504c0.65835,0 1.197,-0.17777 1.197,-0.39504c0,-0.21727 0.53865,-0.39504 1.197,-0.39504c0.65835,0 1.197,-0.17777 1.197,-0.39504c0,-0.21727 0.53865,-0.39504 1.197,-0.39504c0.65835,0 1.197,-0.17777 1.197,-0.39504c0,-0.21727 0.3591,-0.39504 0.798,-0.39504c0.4389,0 0.798,-0.17777 0.798,-0.39504c0,-0.21727 0.53865,-0.39504 1.197,-0.39504c0.65835,0 1.197,-0.17777 1.197,-0.39504c0,-0.21727 0.53865,-0.39504 1.197,-0.39504c0.65835,0 1.197,-0.17777 1.197,-0.39504c0,-0.21727 0.4379,-0.39504 0.97356,-0.39504c0.53566,0 1.08528,-0.17777 1.22094,-0.39504c0.13566,-0.21727 0.68528,-0.39504 1.22094,-0.39504c0.53566,0 0.97356,-0.17777 0.97356,-0.39504c0,-0.21727 0.3591,-0.39504 0.798,-0.39504c0.4389,0 0.798,-0.17777 0.798,-0.39504c0,-0.21727 0.53865,-0.39504 1.197,-0.39504c0.65835,0 1.197,-0.17777 1.197,-0.39504c0,-0.21727 0.53865,-0.39504 1.197,-0.39504c0.65835,0 1.197,-0.17777 1.197,-0.39504c0,-0.21727 0.53865,-0.39504 1.197,-0.39504c0.65835,0 1.197,-0.17777 1.197,-0.39504c0,-0.21727 0.53865,-0.39504 1.197,-0.39504c0.65835,0 1.197,-0.17777 1.197,-0.39504c0,-0.21727 0.3591,-0.39504 0.798,-0.39504c0.4389,0 0.798,-0.17777 0.798,-0.39504c0,-0.21727 0.53865,-0.39504 1.197,-0.39504c0.65835,0 1.197,-0.15505 1.197,-0.34369c0,-0.18962 0.89077,-0.46121 1.97904,-0.60442c1.08827,-0.1432 2.08577,-0.43257 2.21744,-0.64392c0.13167,-0.21036 0.66733,-0.38319 1.19002,-0.38319c0.52269,0 1.06134,-0.17777 1.197,-0.39504c0.13566,-0.21727 0.59551,-0.39504 1.02144,-0.39504c0.42593,0 0.77406,-0.17777 0.77406,-0.39504c0,-0.21727 0.53865,-0.39504 1.197,-0.39504c0.65835,0 1.197,-0.17777 1.197,-0.39504c0,-0.21727 0.53865,-0.39504 1.197,-0.39504c0.65835,0 1.197,-0.17777 1.197,-0.39504c0,-0.21727 0.4379,-0.39504 0.97356,-0.39504c0.53566,0 1.08528,-0.17777 1.22094,-0.39504c0.13566,-0.21727 0.67431,-0.39504 1.197,-0.39504c0.52269,0 1.06134,-0.17777 1.197,-0.39504c0.13566,-0.21727 0.59551,-0.39504 1.02144,-0.39504c0.42593,0 0.77406,-0.17777 0.77406,-0.39504c0,-0.21727 0.4379,-0.39504 0.97356,-0.39504c0.53566,0 1.08528,-0.17777 1.22094,-0.39504c0.13566,-0.21727 0.68528,-0.39504 1.22094,-0.39504c0.53566,0 0.97356,-0.17777 0.97356,-0.39504c0,-0.21727 0.53865,-0.39504 1.197,-0.39504c0.65835,0 1.197,-0.17777 1.197,-0.39504c0,-0.21727 0.3591,-0.39504 0.798,-0.39504c0.4389,0 0.798,-0.17777 0.798,-0.39504c0,-0.21727 0.53865,-0.39504 1.197,-0.39504c0.65835,0 1.197,-0.17777 1.197,-0.39504c0,-0.21727 0.53865,-0.39504 1.197,-0.39504c0.65835,0 1.197,-0.17777 1.197,-0.39504c0,-0.21727 0.3591,-0.39504 0.798,-0.39504c0.70922,0 0.798,0.26369 0.798,2.37026" id="svg_4"/>
    <path stroke="null" fill-rule="evenodd" fill="#949494" d="m343.45567,18.65594c-0.02494,0.36245 -0.14963,0.98465 -0.27531,1.38265c-0.21746,0.68639 -0.20648,0.68738 0.22643,0.01975c0.25037,-0.38616 0.37506,-1.00835 0.27531,-1.38265c-0.1616,-0.61133 -0.18454,-0.61331 -0.22643,-0.01975m34.26814,9.55907c0,0.10864 0.53865,0.57676 1.197,1.04094c0.65835,0.46418 1.197,0.75453 1.197,0.6459c0,-0.10864 -0.53865,-0.57676 -1.197,-1.04094c-0.65835,-0.46418 -1.197,-0.75453 -1.197,-0.6459m-36.05965,1.88041c-0.33217,1.64634 -0.00998,1.96534 0.34913,0.34566c0.15162,-0.68244 0.19252,-1.32438 0.09077,-1.42413c-0.10175,-0.10074 -0.29925,0.38418 -0.4399,1.07847m41.24665,1.65326c0,0.09185 0.76309,0.66565 1.69575,1.275c0.93266,0.60935 1.48528,0.85428 1.22792,0.54615c-0.49576,-0.59355 -2.92367,-2.10558 -2.92367,-1.82115m12.52761,10.66914l-0.0409,2.44236l0.4,-2.09373c0.23641,-1.23945 0.25237,-2.23694 0.0409,-2.44236c-0.21147,-0.20542 -0.37606,0.6538 -0.4,2.09373m-1.53715,11.1511c-0.15262,1.00835 -0.19551,1.913 -0.09576,2.01176c0.09975,0.09876 0.30623,-0.64491 0.45885,-1.65227c0.15262,-1.00835 0.19551,-1.913 0.09576,-2.01176c-0.09975,-0.09876 -0.30623,0.64491 -0.45885,1.65227m-57.87299,14.00628c-0.15162,0.68244 -0.19252,1.32438 -0.09077,1.42413c0.10175,0.10074 0.29925,-0.38418 0.4399,-1.07847c0.33217,-1.64634 0.00998,-1.96534 -0.34913,-0.34566m-0.89675,6.91327c0.00399,0.8691 0.08579,1.17822 0.18155,0.68639c0.09576,-0.49084 0.09177,-1.20192 -0.00798,-1.58018c-0.09975,-0.37727 -0.17855,0.02469 -0.17357,0.89379m-0.80598,5.33309c0,0.76046 0.0818,1.07156 0.18254,0.69133c0.09975,-0.38023 0.09975,-1.00242 0,-1.38265c-0.10075,-0.38023 -0.18254,-0.06913 -0.18254,0.69133m-0.79002,5.33309c0.00399,0.8691 0.08579,1.17822 0.18155,0.68639c0.09576,-0.49084 0.09177,-1.20192 -0.00798,-1.58018c-0.09975,-0.37727 -0.17855,0.02469 -0.17357,0.89379m-62.54429,2.45816c-0.4389,0.10765 -0.97755,0.32097 -1.197,0.47603c-0.21945,0.15505 -1.20698,0.52343 -2.1945,0.81873c-0.98753,0.2953 -1.97505,0.6538 -2.1945,0.797c-0.21945,0.14222 -1.4763,0.66367 -2.793,1.15945c-1.3167,0.49479 -3.1122,1.21377 -3.99,1.59696c-0.8778,0.38418 -2.49375,0.99847 -3.591,1.36586c-1.09725,0.36838 -2.53365,0.90366 -3.192,1.19106c-0.65835,0.28739 -5.68575,2.24286 -11.17201,4.34548c-5.48625,2.10262 -10.37899,3.98797 -10.87276,4.18944c-0.49376,0.20147 -1.39151,0.56788 -1.995,0.81478c-0.60349,0.24591 -1.50124,0.60145 -1.995,0.79009c-1.14314,0.43554 -2.5935,1.00934 -3.99,1.58018c-1.68777,0.68836 -3.01345,1.20883 -3.89025,1.52684c-1.19102,0.43159 -3.10023,1.23155 -3.88526,1.62659c-0.38105,0.1916 -0.8768,0.34863 -1.10124,0.34863c-0.22444,0 -1.17007,0.33677 -2.09974,0.74762c-0.93067,0.41085 -2.03191,0.85922 -2.44687,0.9965c-0.41596,0.13728 -0.66234,0.3427 -0.54763,0.45628c0.1985,0.19555 4.73613,-1.44784 10.57949,-3.8339c1.68777,-0.68836 3.01345,-1.20883 3.89025,-1.52684c0.4389,-0.15901 1.33665,-0.51454 1.995,-0.79009c1.20598,-0.50467 2.3551,-0.96489 4.1895,-1.67894c0.54863,-0.21332 1.30972,-0.54516 1.69076,-0.73774c0.38105,-0.1916 0.8768,-0.34863 1.10124,-0.34863c0.22444,0 1.25984,-0.37332 2.29924,-0.82959c2.394,-1.04983 2.76806,-1.19797 6.87876,-2.7258c4.1107,-1.52783 4.48476,-1.67597 6.87876,-2.7258c1.0394,-0.45628 2.02592,-0.82959 2.19151,-0.82959c0.52269,0 17.84429,-6.79969 18.24129,-7.16116c0.20848,-0.18962 0.78104,-0.34468 1.27281,-0.34468c0.49177,0 1.00548,-0.17777 1.14114,-0.39504c1.33366,-2.1362 2.05585,1.52191 0.96758,4.89854c-0.20249,0.63009 -0.36908,1.83992 -0.36908,2.68926c0,0.84836 -0.16459,2.28829 -0.36509,3.19985c-0.2005,0.91058 -0.56658,3.16726 -0.81396,5.01409c-0.24638,1.84683 -0.60848,4.33561 -0.80399,5.53061c-0.19551,1.19501 -0.55561,3.68378 -0.80099,5.53061c-0.45586,3.43491 -0.96159,6.81253 -1.595,10.66618c-0.60349,3.66699 -0.91371,7.32411 -0.59551,7.02092c0.16658,-0.15901 0.46085,-1.58116 0.65536,-3.16035c0.19451,-1.58018 0.51571,-3.93957 0.71521,-5.24322c0.35611,-2.32878 0.71321,-4.78102 1.61196,-11.06123c0.24838,-1.73819 0.62344,-4.31585 0.83391,-5.72813c0.20948,-1.41228 0.55262,-3.72329 0.76209,-5.13557c0.57356,-3.86057 1.12418,-7.77841 1.52717,-10.8637c0.1995,-1.52092 0.40598,-2.94308 0.46085,-3.16035c0.17057,-0.68343 0.01596,-1.38463 -0.29526,-1.33722c-0.16459,0.02568 -0.65835,0.13333 -1.09725,0.23999m61.7383,2.87493c0,0.76046 0.0818,1.07156 0.18254,0.69133c0.09975,-0.38023 0.09975,-1.00242 0,-1.38265c-0.10075,-0.38023 -0.18254,-0.06913 -0.18254,0.69133m-0.78204,5.53061c0,0.97773 0.07781,1.37772 0.17257,0.88885c0.09576,-0.48887 0.09576,-1.28883 0,-1.7777c-0.09476,-0.48887 -0.17257,-0.08888 -0.17257,0.88885m-0.798,5.53061c0,0.97773 0.07781,1.37772 0.17257,0.88885c0.09576,-0.48887 0.09576,-1.28883 0,-1.7777c-0.09476,-0.48887 -0.17257,-0.08888 -0.17257,0.88885m-0.798,5.13557c0,0.97773 0.07781,1.37772 0.17257,0.88885c0.09576,-0.48887 0.09576,-1.28883 0,-1.7777c-0.09476,-0.48887 -0.17257,-0.08888 -0.17257,0.88885m-131.57931,8.96354c-4.16955,1.62857 -8.3421,3.30059 -9.27277,3.7144c-0.92967,0.4148 -1.8753,0.75355 -2.09974,0.75355c-0.22444,0 -0.7202,0.15703 -1.10124,0.34863c-0.64838,0.3269 -1.44438,0.65972 -3.88526,1.62659c-0.54863,0.21727 -1.49126,0.59652 -2.09475,0.84342c-1.3566,0.55306 -2.19749,0.87502 -4.48875,1.72042c-0.98753,0.36344 -2.33415,0.8928 -2.9925,1.17526c-0.65835,0.28246 -1.82543,0.72984 -2.5935,0.99452c-2.0339,0.7012 -3.81245,1.38463 -6.1845,2.37718c-1.12019,0.46813 -2.05784,0.84539 -3.99,1.60388c-0.4389,0.17283 -5.28675,2.03448 -10.77301,4.1371c-5.48625,2.10262 -10.51366,4.0571 -11.17201,4.34153c-0.65835,0.28542 -2.00498,0.81675 -2.9925,1.18019c-0.98753,0.36443 -2.19949,0.82367 -2.69325,1.0202c-1.80647,0.72095 -2.9127,1.15649 -3.7905,1.4903c-0.49376,0.18863 -1.34663,0.52047 -1.89525,0.73774c-0.54863,0.21727 -1.44638,0.57281 -1.995,0.79009c-0.54863,0.21727 -1.53615,0.62022 -2.1945,0.89576c-0.65835,0.27554 -1.5561,0.63108 -1.995,0.79009c-0.88478,0.32097 -2.2753,0.86712 -3.7905,1.48833c-0.54863,0.22517 -2.0748,0.81083 -3.3915,1.29969c-1.3167,0.48985 -2.56457,1.04094 -2.77305,1.22365c-0.20848,0.1837 -0.75611,0.33381 -1.21695,0.33381c-0.46085,0 -1.00847,0.15012 -1.21695,0.33381c-0.20848,0.18271 -1.36658,0.70417 -2.57355,1.15748c-6.06879,2.28138 -9.87326,3.73514 -10.77301,4.11636c-1.1591,0.49183 -1.92518,0.78811 -4.389,1.69671c-0.98753,0.36344 -2.33415,0.8928 -2.9925,1.17624c-0.65835,0.28344 -2.2743,0.92045 -3.591,1.41524c-1.3167,0.49479 -2.57355,1.01625 -2.793,1.15847c-0.21945,0.1432 -1.20698,0.50171 -2.1945,0.797c-0.98753,0.2953 -1.97505,0.6538 -2.1945,0.797c-0.21945,0.14222 -1.4763,0.66071 -2.793,1.15254c-3.24088,1.20883 -3.81245,1.42808 -5.08725,1.94757c-0.60349,0.2469 -1.54613,0.62614 -2.09475,0.84342c-0.54863,0.21727 -1.49126,0.59652 -2.09475,0.84342c-1.46333,0.59652 -1.25885,0.51849 -12.66826,4.88669c-11.34358,4.34351 -10.93161,4.18154 -13.46227,5.29161c-1.0394,0.45628 -2.0748,0.82959 -2.29924,0.82959c-0.22444,0 -0.7202,0.15703 -1.10124,0.34863c-0.77007,0.38813 -3.15011,1.36093 -5.78052,2.36335c-0.49376,0.18863 -1.39151,0.54417 -1.995,0.79009c-0.60349,0.2469 -1.54613,0.62614 -2.09475,0.84342c-0.54863,0.21727 -1.44638,0.57281 -1.995,0.79009c-0.54863,0.21727 -1.40149,0.54911 -1.89525,0.73676c-0.49376,0.18863 -1.34663,0.52738 -1.89525,0.75256c-0.54863,0.22616 -2.52368,0.97773 -4.389,1.67104c-6.20246,2.30508 -7.98,3.09616 -7.98,3.55046c0,0.30912 4.11968,3.41515 23.54101,17.7503c2.52368,1.86263 4.67828,3.48527 4.788,3.60477c0.10973,0.1195 0.82793,0.64491 1.596,1.16735c0.76808,0.52245 1.48628,1.05575 1.596,1.18513c0.10973,0.12938 0.82793,0.66565 1.596,1.19106c0.76808,0.52541 1.62792,1.17723 1.91021,1.44882c0.28229,0.2706 1.04538,0.80391 1.69575,1.18414c0.65037,0.38023 1.18204,0.83157 1.18204,1.00144c0,0.17086 0.19252,0.31011 0.42793,0.31011c0.23441,0 0.65536,0.22221 0.93366,0.4938c0.2793,0.27159 1.02942,0.8849 1.66782,1.36389c1.00448,0.75256 22.5485,16.66196 25.29961,18.68261c0.54863,0.40294 5.09623,3.76872 10.10568,7.47818c5.00945,3.71045 9.27376,6.74537 9.47626,6.74537c0.20249,0 0.36908,0.13333 0.37107,0.29628c0.001,0.16296 0.67232,0.74071 1.49027,1.28389c1.59002,1.05575 2.66333,1.87053 3.5102,2.66655c0.28928,0.27159 0.64139,0.4938 0.78204,0.4938c0.14065,0 0.52868,0.26962 0.86284,0.59948c0.33317,0.32986 2.96357,2.32977 5.84535,4.44424c10.21939,7.49793 16.6014,12.19599 17.70763,13.03447c0.61546,0.46714 2.91569,2.19052 5.1102,3.82896c2.1945,1.63844 4.43888,3.31738 4.9875,3.73119c0.54863,0.41381 3.69075,2.73469 6.9825,5.1573c3.29175,2.42359 6.25433,4.62102 6.5835,4.88373c0.32918,0.2627 1.22693,0.91156 1.995,1.44092c0.76808,0.53035 1.48628,1.06168 1.596,1.18118c0.10973,0.1195 1.18703,0.94415 2.394,1.833c3.66581,2.69914 28.68014,21.15361 39.50102,29.14238c9.29072,6.85796 21.00537,15.54003 26.1026,19.34233c1.11521,0.83157 2.4758,1.8409 3.02442,2.24385c0.54863,0.40196 6.52864,4.83237 13.2887,9.84548c6.75906,5.01212 12.45978,9.11366 12.66826,9.11366c0.20748,0 0.37706,0.13925 0.37706,0.31011c0,0.16987 0.51371,0.61034 1.14114,0.97675c0.62843,0.36739 1.84039,1.29081 2.69325,2.05126c0.85386,0.76145 1.68578,1.38858 1.84837,1.39352c0.16259,0.00494 0.70124,0.35159 1.197,0.77132c0.49576,0.41973 5.3895,4.05907 10.87575,8.08852c5.48625,4.02846 10.58348,7.8189 11.32762,8.42233c0.74414,0.60244 1.54413,1.16735 1.77755,1.25525c0.23342,0.08691 0.79202,0.50368 1.24089,0.92539c0.44888,0.4227 1.60797,1.31253 2.57455,1.97818l1.75959,1.20982l1.83141,-0.70219c1.00847,-0.38517 2.28128,-0.79305 2.82991,-0.90465c0.54863,-0.11259 1.17705,-0.32591 1.3965,-0.47504c0.21945,-0.14814 1.20698,-0.51158 2.1945,-0.80589c0.98753,-0.29332 1.96607,-0.68145 2.17455,-0.8612c0.20848,-0.17876 0.70424,-0.32591 1.10224,-0.32591c0.70025,0 1.09825,-0.14913 3.00248,-1.1239c0.49077,-0.25085 1.16608,-0.45628 1.50124,-0.45628c0.33516,0 0.96558,-0.17777 1.40149,-0.39504c0.43591,-0.21727 1.15012,-0.57281 1.58603,-0.79009c0.43591,-0.21727 1.14314,-0.39504 1.57206,-0.39504c0.42893,0 0.89077,-0.17777 1.02643,-0.39504c0.13566,-0.21727 0.64937,-0.39504 1.14114,-0.39504c0.49177,0 1.06433,-0.14123 1.27281,-0.31406c0.20848,-0.17283 1.09725,-0.54022 1.97505,-0.81675c0.8778,-0.27554 1.9551,-0.65972 2.394,-0.85428c0.4389,-0.19357 2.14463,-0.79601 3.7905,-1.3392c1.64588,-0.54319 5.8653,-1.98905 9.37651,-3.21368c3.5112,-1.22464 7.19198,-2.49075 8.1795,-2.8137c0.98753,-0.32295 2.1546,-0.74367 2.5935,-0.93428c0.4389,-0.1916 2.14463,-0.7812 3.7905,-1.31253c3.44636,-1.11106 4.00496,-1.97719 2.02493,-3.13566c-0.65935,-0.38517 -1.42842,-0.92144 -1.71071,-1.19204c-0.46484,-0.44442 -6.93063,-5.24421 -17.07222,-12.67202c-2.08478,-1.52684 -4.70222,-3.49416 -5.81543,-4.37215c-1.11421,-0.87798 -2.55061,-1.98509 -3.192,-2.46013c-0.64239,-0.47603 -9.69571,-7.17498 -20.11959,-14.88722c-10.42388,-7.71224 -19.13206,-14.17219 -19.35151,-14.3549c-0.21945,-0.1837 -1.02743,-0.76836 -1.7955,-1.29871c-0.76808,-0.53133 -1.84338,-1.3708 -2.39001,-1.86658c-0.54663,-0.49479 -1.1172,-0.89971 -1.26782,-0.89971c-0.15162,0 -0.51272,-0.22814 -0.80199,-0.50664c-0.29027,-0.27851 -1.1561,-0.94317 -1.92418,-1.47549c-0.76808,-0.53331 -1.66583,-1.19007 -1.995,-1.45969c-0.32918,-0.26962 -6.25433,-4.68226 -13.16701,-9.80499c-6.91268,-5.12372 -12.83783,-9.52747 -13.16701,-9.78721c-1.28179,-1.00934 -6.99647,-5.24322 -7.83437,-5.80418c-0.85187,-0.57084 -5.29872,-3.88526 -6.52964,-4.86694c-0.32918,-0.2627 -1.22693,-0.91058 -1.995,-1.43993c-0.76808,-0.53035 -1.48628,-1.06958 -1.596,-1.19896c-0.10973,-0.12938 -0.82793,-0.66269 -1.596,-1.18513c-0.76808,-0.52245 -1.48628,-1.05575 -1.596,-1.18513c-0.10973,-0.12938 -0.82793,-0.66861 -1.596,-1.19896c-0.76808,-0.52936 -1.66583,-1.18316 -1.995,-1.45376c-0.32918,-0.26962 -4.81793,-3.60774 -9.97501,-7.41695c-5.15708,-3.80822 -9.64583,-7.14832 -9.97501,-7.4209c-0.32918,-0.27258 -1.22693,-0.92835 -1.995,-1.45771c-0.76808,-0.53035 -1.48628,-1.06958 -1.596,-1.19896c-0.10973,-0.12938 -0.82793,-0.66269 -1.596,-1.18513c-0.76808,-0.52245 -1.48628,-1.05575 -1.596,-1.18513c-0.10973,-0.12938 -0.82793,-0.66861 -1.596,-1.19896c-0.76808,-0.52936 -1.66583,-1.17822 -1.995,-1.44191c-0.32918,-0.2627 -3.74063,-2.79592 -7.581,-5.62839c-3.84038,-2.83148 -7.16205,-5.29062 -7.3815,-5.46247c-0.21945,-0.17283 -1.02743,-0.74466 -1.7955,-1.27204c-0.76808,-0.5264 -1.48628,-1.06168 -1.596,-1.19007c-0.10973,-0.1274 -3.7905,-2.88283 -8.1795,-6.12219c-4.389,-3.24035 -8.06978,-5.99775 -8.1795,-6.12713c-0.10973,-0.12938 -0.82793,-0.66269 -1.596,-1.18513c-0.76808,-0.52245 -1.48628,-1.05575 -1.596,-1.18513c-0.10973,-0.12938 -0.82793,-0.66269 -1.596,-1.18513c-0.76808,-0.52245 -1.48628,-1.05575 -1.596,-1.18513c-0.10973,-0.12938 -0.82793,-0.66269 -1.596,-1.18513c-0.76808,-0.52245 -1.48628,-1.05575 -1.596,-1.18513c-0.10973,-0.12938 -0.82793,-0.66269 -1.596,-1.18513c-0.76808,-0.52245 -1.48628,-1.05575 -1.596,-1.18513c-0.10973,-0.12938 -0.82793,-0.66861 -1.596,-1.19896c-0.76808,-0.52936 -1.66583,-1.18118 -1.995,-1.44882c-0.32918,-0.26863 -5.08725,-3.78946 -10.57351,-7.82582c-12.64332,-9.30328 -13.0493,-9.94226 -7.3815,-11.64688c0.98753,-0.29628 1.97505,-0.64787 2.1945,-0.7812c0.21945,-0.13234 1.1172,-0.46813 1.995,-0.74466c0.8778,-0.27653 1.9551,-0.65775 2.394,-0.84638c0.4389,-0.18863 1.96508,-0.72194 3.3915,-1.18513c1.42643,-0.46319 2.9526,-0.99057 3.3915,-1.17229c1.6778,-0.69528 5.38451,-2.01571 10.57351,-3.76674c2.96258,-0.99946 6.1047,-2.09176 6.9825,-2.42754c0.8778,-0.3348 2.40398,-0.86811 3.3915,-1.18414c0.98753,-0.31604 2.1546,-0.72589 2.5935,-0.91058c0.4389,-0.1837 1.42643,-0.54911 2.1945,-0.80984c1.68877,-0.57479 3.1521,-1.15649 4.08476,-1.62659c0.38105,-0.1916 1.04339,-0.34863 1.47231,-0.34863c0.42893,0 0.89077,-0.17777 1.02643,-0.39504c0.13566,-0.21727 0.64937,-0.39504 1.14114,-0.39504c0.49177,0 1.06433,-0.14123 1.27281,-0.31406c0.20848,-0.17283 1.09725,-0.54022 1.97505,-0.81675c1.66982,-0.52442 3.1142,-1.09131 4.28427,-1.68091c0.38105,-0.1916 1.04339,-0.34863 1.47231,-0.34863c0.42893,0 0.89077,-0.17777 1.02643,-0.39504c0.13566,-0.21727 0.67431,-0.39504 1.197,-0.39504c0.52269,0 1.04837,-0.15703 1.16708,-0.34764c0.1197,-0.1916 0.62444,-0.43751 1.12119,-0.54812c0.49676,-0.10962 2.42991,-0.76441 4.29524,-1.45574c1.86533,-0.69034 4.19948,-1.52586 5.187,-1.85572c3.73265,-1.24834 12.20143,-4.1766 12.96751,-4.48473c1.66882,-0.67059 4.45683,-1.67597 6.1845,-2.22903c1.8344,-0.58763 3.24986,-1.14563 4.48377,-1.76683c0.38105,-0.1916 1.04339,-0.34863 1.47231,-0.34863c0.42893,0 0.89077,-0.17777 1.02643,-0.39504c0.13566,-0.21727 0.5975,-0.39504 1.02643,-0.39504c0.42893,0 1.13615,-0.17777 1.57206,-0.39504c0.43591,-0.21727 1.15012,-0.57281 1.58603,-0.79009c0.43591,-0.21727 1.06633,-0.39504 1.40149,-0.39504c0.33516,0 0.96558,-0.17777 1.40149,-0.39504c0.43591,-0.21727 1.15012,-0.57281 1.58603,-0.79009c0.43591,-0.21727 1.1182,-0.39504 1.5162,-0.39504c0.398,0 0.89376,-0.14123 1.10224,-0.31406c0.20848,-0.17283 1.09725,-0.54022 1.97505,-0.81675c0.8778,-0.27554 1.9551,-0.65874 2.394,-0.85033c0.4389,-0.19258 1.60598,-0.61528 2.5935,-0.94119c0.98753,-0.32492 3.86033,-1.32636 6.384,-2.2241c2.52368,-0.89774 6.29423,-2.22212 8.37901,-2.94209c2.08478,-0.72095 5.85533,-2.05028 8.37901,-2.95394c2.52368,-0.90267 5.39648,-1.90806 6.384,-2.23298c0.98753,-0.32492 2.1546,-0.74861 2.5935,-0.94119c0.4389,-0.19258 1.20199,-0.4622 1.69575,-0.59948c1.24488,-0.34468 1.67381,-1.31747 2.13964,-4.85015c0.81296,-6.15281 0.70025,-7.63027 -0.17257,-2.25866c-1.02344,6.30194 -1.04538,6.35724 -2.77904,6.8629c-1.40747,0.40986 -6.79697,2.28434 -8.06579,2.80382c-0.4389,0.17974 -1.42643,0.54121 -2.1945,0.80194c-0.76808,0.26073 -1.7556,0.62614 -2.1945,0.80984c-0.4389,0.18468 -1.60598,0.60145 -2.5935,0.92737c-0.98753,0.32492 -3.86033,1.3234 -6.384,2.21916c-2.52368,0.89477 -5.3067,1.86461 -6.1845,2.15595c-0.8778,0.29134 -3.66083,1.275 -6.1845,2.18657c-2.52368,0.91156 -5.39648,1.91991 -6.384,2.24089c-0.98753,0.32196 -2.1546,0.73577 -2.5935,0.92144c-0.4389,0.18567 -2.41395,0.89379 -4.389,1.57524c-1.97505,0.68145 -3.9501,1.39253 -4.389,1.58018c-0.4389,0.18863 -1.5162,0.56886 -2.394,0.84441c-0.8778,0.27653 -1.76657,0.64392 -1.97505,0.81675c-0.20848,0.17283 -0.70424,0.31406 -1.10224,0.31406c-0.398,0 -1.03541,0.17184 -1.41645,0.3822c-0.38105,0.21036 -1.50124,0.64392 -2.48876,0.96193c-0.98753,0.31801 -3.32168,1.13773 -5.187,1.82115c-1.86533,0.68343 -4.37903,1.56734 -5.586,1.96534c-1.20698,0.39801 -4.25933,1.46858 -6.783,2.37915c-2.52368,0.91058 -6.29423,2.24879 -8.37901,2.97369c-2.08478,0.72491 -5.31668,1.87448 -7.182,2.55396c-1.86533,0.67948 -4.19948,1.50018 -5.187,1.82313c-0.98753,0.32196 -2.1546,0.74268 -2.5935,0.93527c-0.4389,0.1916 -1.5162,0.57479 -2.394,0.85033c-0.8778,0.27653 -1.76657,0.64392 -1.97505,0.81675c-0.20848,0.17283 -0.76209,0.31406 -1.22992,0.31406c-0.46883,0 -0.97057,0.11753 -1.1162,0.26172c-0.27631,0.27357 -2.91071,1.2592 -6.65133,2.48779c-1.20698,0.39702 -2.9127,0.99354 -3.7905,1.32636c-0.8778,0.33282 -3.21195,1.16439 -5.187,1.8488c-1.97505,0.68343 -4.48875,1.57524 -5.586,1.98114c-1.09725,0.40591 -5.85533,2.08682 -10.57351,3.73613c-11.23684,3.92575 -11.69071,4.18944 -10.74807,6.22293c0.22943,0.49479 22.9495,17.61006 50.48849,38.03382c27.539,20.42376 50.287,37.32275 50.55134,37.55286c0.26434,0.2311 17.80738,13.25964 38.98432,28.95374c21.17694,15.6941 38.77285,28.75227 39.10202,29.01794c0.32918,0.26567 12.48073,9.30131 27.00234,20.08106c25.60085,19.0016 27.4163,20.48697 25.04026,20.48697c-0.25536,0 -1.34164,0.34369 -2.41395,0.76441c-1.07132,0.41973 -3.47429,1.29574 -5.33962,1.9446c-1.86533,0.64985 -8.32913,2.89666 -14.36401,4.99434c-6.03488,2.09768 -12.49868,4.34548 -14.36401,4.99632c-1.86533,0.65083 -3.93015,1.36586 -4.5885,1.59005c-0.65835,0.2232 -1.5561,0.558 -1.995,0.74169c-0.4389,0.18468 -1.60598,0.60343 -2.5935,0.93132c-4.84486,1.60882 -8.41492,2.90357 -8.65033,3.13566c-0.14364,0.14222 -0.64339,0.25875 -1.11221,0.25875c-0.46783,0 -1.05236,0.1995 -1.29875,0.44344c-0.33117,0.32789 -0.78104,0.20937 -1.72667,-0.45726c-1.32468,-0.93428 -17.3625,-12.77967 -21.92506,-16.19383c-3.50023,-2.62013 -25.65771,-19.00457 -41.09902,-30.3917c-6.91168,-5.09705 -12.65629,-9.37143 -12.76601,-9.49981c-0.10973,-0.12839 -0.82793,-0.66565 -1.596,-1.19599c-0.76808,-0.52936 -1.66583,-1.17427 -1.995,-1.43203c-0.32918,-0.25875 -4.5486,-3.36874 -9.37651,-6.91129c-4.8279,-3.54255 -8.86778,-6.54291 -8.97751,-6.66636c-0.10973,-0.12246 -0.82793,-0.65676 -1.596,-1.18711c-0.76808,-0.52936 -1.66583,-1.17624 -1.995,-1.43697c-0.93965,-0.74466 -21.36646,-15.85903 -39.10202,-28.93399c-8.88773,-6.55279 -16.42983,-12.12883 -16.761,-12.39252c-0.60149,-0.47998 -6.25034,-4.65855 -13.76252,-10.18127c-2.1945,-1.61375 -4.25933,-3.1485 -4.5885,-3.41219c-0.32918,-0.2627 -5.80545,-4.31289 -12.16951,-9.00008c-6.36405,-4.68719 -11.84432,-8.74034 -12.17848,-9.00601c-0.7591,-0.60442 -1.73066,-1.3234 -19.34253,-14.32824c-27.42628,-20.25093 -33.12001,-24.47494 -33.63073,-24.95393c-0.28229,-0.26468 -1.04538,-0.79206 -1.69575,-1.17229c-0.65037,-0.38023 -1.18204,-0.83157 -1.18204,-1.00144c0,-0.17086 -0.19052,-0.31011 -0.42194,-0.31011c-0.34514,0 -3.20397,-1.99596 -3.96706,-2.77024c-0.10973,-0.11061 -3.65584,-2.75345 -7.88025,-5.87134c-4.22442,-3.11788 -7.68075,-5.79332 -7.68075,-5.94442c0,-0.1511 4.26432,-1.9209 9.47626,-3.93266c5.21194,-2.01176 9.92513,-3.84773 10.47376,-4.07883c0.54863,-0.2311 1.40149,-0.57479 1.89525,-0.76342c0.49376,-0.18765 1.30174,-0.49578 1.7955,-0.68343c0.49376,-0.18863 1.34663,-0.52047 1.89525,-0.73774c0.54863,-0.21727 1.49126,-0.59652 2.09475,-0.84243c0.60349,-0.2469 1.59101,-0.64985 2.1945,-0.89675c0.60349,-0.24591 1.50124,-0.60145 1.995,-0.79009c0.49376,-0.18765 1.30174,-0.50269 1.7955,-0.70022c0.49376,-0.19752 3.77055,-1.46166 7.28175,-2.80975c12.05878,-4.62893 13.571,-5.21853 15.81038,-6.15972c1.23491,-0.51849 2.37405,-0.94317 2.53365,-0.94317c0.1586,0 0.94364,-0.28443 1.74563,-0.63306c1.93515,-0.84046 2.33016,-0.99551 7.44135,-2.92234c2.41395,-0.90959 4.83788,-1.83893 5.3865,-2.06509c0.54863,-0.22616 1.40149,-0.56491 1.89525,-0.75355c0.49376,-0.18765 1.34663,-0.51948 1.89525,-0.73676c0.54863,-0.21727 1.44638,-0.57281 1.995,-0.79009c0.54863,-0.21727 1.49126,-0.59652 2.09475,-0.84342c1.68777,-0.68836 3.01345,-1.20883 3.89025,-1.52684c0.4389,-0.15901 1.33665,-0.51454 1.995,-0.79009c1.56608,-0.65479 1.10423,-0.47603 13.76551,-5.33309c6.03488,-2.31496 11.37649,-4.37313 11.87026,-4.57362c0.49376,-0.20048 1.34663,-0.5422 1.89525,-0.75947c0.54863,-0.21727 1.49126,-0.59652 2.09475,-0.84342c1.68777,-0.68836 3.01345,-1.20883 3.89025,-1.52684c0.4389,-0.15901 1.33665,-0.51454 1.995,-0.79009c0.65835,-0.27554 1.5561,-0.63108 1.995,-0.79009c1.01645,-0.36838 2.46582,-0.94218 3.99,-1.58018c0.65835,-0.27554 1.5561,-0.638 1.995,-0.80688c0.4389,-0.16789 3.6708,-1.40734 7.182,-2.75345c3.5112,-1.34611 7.99995,-3.06258 9.97501,-3.81316c1.97505,-0.75058 3.9501,-1.51894 4.389,-1.70758c0.4389,-0.18863 2.05485,-0.81873 3.591,-1.39944c1.53615,-0.5817 3.33165,-1.28587 3.99,-1.56536c0.65835,-0.27949 3.17205,-1.25624 5.586,-2.16879c5.88525,-2.22706 5.81643,-2.20039 7.182,-2.77222c0.65835,-0.27554 1.5561,-0.63108 1.995,-0.79009c0.4389,-0.15901 1.33665,-0.51454 1.995,-0.79009c0.65835,-0.27554 1.64588,-0.67849 2.1945,-0.89576c0.54863,-0.21727 1.3566,-0.52541 1.7955,-0.68441c0.4389,-0.15901 1.29176,-0.49084 1.89525,-0.73676c0.60349,-0.2469 1.59101,-0.64985 2.1945,-0.89675c1.55012,-0.63207 1.99899,-0.80589 8.57851,-3.32528c3.23689,-1.23945 5.88525,-2.31891 5.88525,-2.39989c0,-0.37825 -1.53216,0.13728 -8.57851,2.89073m185.95606,-0.05333c-0.14963,0.79305 -0.19352,1.52092 -0.09576,1.6177c0.09776,0.0958 0.30025,-0.47306 0.45087,-1.26612c0.14963,-0.79305 0.19352,-1.52092 0.09576,-1.6177c-0.09776,-0.0958 -0.30025,0.47306 -0.45087,1.26612m-55.98871,2.54606c0,0.76046 0.0818,1.07156 0.18254,0.69133c0.09975,-0.38023 0.09975,-1.00242 0,-1.38265c-0.10075,-0.38023 -0.18254,-0.06913 -0.18254,0.69133m-0.798,5.13557c0,0.76046 0.0818,1.07156 0.18254,0.69133c0.09975,-0.38023 0.09975,-1.00242 0,-1.38265c-0.10075,-0.38023 -0.18254,-0.06913 -0.18254,0.69133m-0.84189,5.33309c-0.03292,0.43455 -0.15262,1.23451 -0.26534,1.7777l-0.20549,0.98761l0.42793,-0.96884c0.23541,-0.53331 0.35411,-1.33327 0.26534,-1.7777c-0.1586,-0.78811 -0.16459,-0.78811 -0.22244,-0.01876m53.6386,13.45321c-0.14963,0.79305 -0.19352,1.52092 -0.09576,1.6177c0.09776,0.0958 0.30025,-0.47306 0.45087,-1.26612c0.14963,-0.79305 0.19352,-1.52092 0.09576,-1.6177c-0.09776,-0.0958 -0.30025,0.47306 -0.45087,1.26612m-56.03559,3.00727c-0.02494,0.36245 -0.14963,0.98465 -0.27531,1.38265c-0.21746,0.68639 -0.20648,0.68738 0.22643,0.01975c0.25037,-0.38616 0.37506,-1.00835 0.27531,-1.38265c-0.1616,-0.61133 -0.18454,-0.61331 -0.22643,-0.01975m-0.798,5.13557c-0.02494,0.36245 -0.14963,0.98465 -0.27531,1.38265c-0.21746,0.68639 -0.20648,0.68738 0.22643,0.01975c0.25037,-0.38616 0.37506,-1.00835 0.27531,-1.38265c-0.1616,-0.61133 -0.18454,-0.61331 -0.22643,-0.01975m-1.01446,6.08565c-0.14763,0.57874 -0.19052,1.12884 -0.09676,1.22167c0.09476,0.09284 0.29127,-0.30418 0.4379,-0.88391c0.14763,-0.57874 0.19052,-1.12884 0.09676,-1.22167c-0.09476,-0.09284 -0.29127,0.30418 -0.4379,0.88391m-2.17754,15.24671c-0.02494,0.36245 -0.14963,0.98465 -0.27531,1.38265c-0.21746,0.68639 -0.20648,0.68738 0.22643,0.01975c0.25037,-0.38616 0.37506,-1.00835 0.27531,-1.38265c-0.1616,-0.61133 -0.18454,-0.61331 -0.22643,-0.01975m55.21565,2.69914c-0.15362,0.89872 -0.19551,1.71647 -0.09277,1.8172c0.10274,0.10172 0.30524,-0.55602 0.45187,-1.46166c0.14663,-0.90564 0.18753,-1.72338 0.09277,-1.8172c-0.09476,-0.09481 -0.29825,0.56294 -0.45187,1.46166m-1.57805,10.88148c-0.15262,1.00835 -0.19551,1.913 -0.09576,2.01176c0.09975,0.09876 0.30623,-0.64491 0.45885,-1.65227c0.15262,-1.00835 0.19551,-1.913 0.09576,-2.01176c-0.09975,-0.09876 -0.30623,0.64491 -0.45885,1.65227m-195.72757,1.09328c0,0.09777 0.65935,0.67552 1.46433,1.28389c0.80598,0.60837 1.33964,0.90465 1.18503,0.65775c-0.31521,-0.50566 -2.64936,-2.2162 -2.64936,-1.94164m138.70844,7.46534c-0.13466,0.49776 -0.22843,1.26019 -0.20948,1.69474c0.01895,0.43455 0.1985,0.09679 0.399,-0.75058c0.38903,-1.64141 0.22344,-2.46902 -0.18953,-0.94415m-2.55659,17.69401c0,0.76046 0.0818,1.07156 0.18254,0.69133c0.09975,-0.38023 0.09975,-1.00242 0,-1.38265c-0.10075,-0.38023 -0.18254,-0.06913 -0.18254,0.69133m-181.49424,2.28039c0.31521,0.50566 2.64936,2.2162 2.64936,1.94164c0,-0.09777 -0.65935,-0.67552 -1.46433,-1.28389c-0.80598,-0.60837 -1.33964,-0.90465 -1.18503,-0.65775m180.69624,3.25022c0,0.76046 0.0818,1.07156 0.18254,0.69133c0.09975,-0.38023 0.09975,-1.00242 0,-1.38265c-0.10075,-0.38023 -0.18254,-0.06913 -0.18254,0.69133m-0.798,5.13557c0,0.76046 0.0818,1.07156 0.18254,0.69133c0.09975,-0.38023 0.09975,-1.00242 0,-1.38265c-0.10075,-0.38023 -0.18254,-0.06913 -0.18254,0.69133m-0.798,5.92566c0,0.76046 0.0818,1.07156 0.18254,0.69133c0.09975,-0.38023 0.09975,-1.00242 0,-1.38265c-0.10075,-0.38023 -0.18254,-0.06913 -0.18254,0.69133m-0.798,5.13557c0,0.76046 0.0818,1.07156 0.18254,0.69133c0.09975,-0.38023 0.09975,-1.00242 0,-1.38265c-0.10075,-0.38023 -0.18254,-0.06913 -0.18254,0.69133m-0.79002,5.33309c0.00399,0.8691 0.08579,1.17822 0.18155,0.68639c0.09576,-0.49084 0.09177,-1.20192 -0.00798,-1.58018c-0.09975,-0.37727 -0.17855,0.02469 -0.17357,0.89379m-142.54383,1.1318c0,0.10864 0.53865,0.57676 1.197,1.04094c0.65835,0.46418 1.197,0.75453 1.197,0.6459c0,-0.10864 -0.53865,-0.57676 -1.197,-1.04094c-0.65835,-0.46418 -1.197,-0.75453 -1.197,-0.6459m83.79005,0.79009c0,0.10864 0.53865,0.57676 1.197,1.04094c0.65835,0.46418 1.197,0.75453 1.197,0.6459c0,-0.10864 -0.53865,-0.57676 -1.197,-1.04094c-0.65835,-0.46418 -1.197,-0.75453 -1.197,-0.6459m3.192,2.34952c0,0.09777 0.65935,0.67552 1.46433,1.28389c0.80598,0.60837 1.33964,0.90465 1.18503,0.65775c-0.31521,-0.50566 -2.64936,-2.2162 -2.64936,-1.94164m54.7558,1.85177c0,0.76046 0.0818,1.07156 0.18254,0.69133c0.09975,-0.38023 0.09975,-1.00242 0,-1.38265c-0.10075,-0.38023 -0.18254,-0.06913 -0.18254,0.69133m-0.798,5.13557c0,0.76046 0.0818,1.07156 0.18254,0.69133c0.09975,-0.38023 0.09975,-1.00242 0,-1.38265c-0.10075,-0.38023 -0.18254,-0.06913 -0.18254,0.69133m-120.19184,5.27976c0,0.10864 0.53865,0.57676 1.197,1.04094c0.65835,0.46418 1.197,0.75453 1.197,0.6459c0,-0.10864 -0.53865,-0.57676 -1.197,-1.04094c-0.65835,-0.46418 -1.197,-0.75453 -1.197,-0.6459m83.53469,0.55602c0.31521,0.50566 2.64936,2.2162 2.64936,1.94164c0,-0.09777 -0.65935,-0.67552 -1.46433,-1.28389c-0.80598,-0.60837 -1.33964,-0.90465 -1.18503,-0.65775m3.44736,2.60433c0,0.10864 0.53865,0.57676 1.197,1.04094c0.65835,0.46418 1.197,0.75453 1.197,0.6459c0,-0.10864 -0.53865,-0.57676 -1.197,-1.04094c-0.65835,-0.46418 -1.197,-0.75453 -1.197,-0.6459m31.57488,2.48976c-0.02893,0.47109 -0.15761,1.18217 -0.28329,1.58018c-0.21746,0.6854 -0.20549,0.68639 0.22544,0.02074c0.25037,-0.38616 0.37805,-1.09723 0.28429,-1.58018c-0.17157,-0.87601 -0.17157,-0.87601 -0.22643,-0.02074m-0.798,5.13557c-0.02893,0.47109 -0.15761,1.18217 -0.28329,1.58018c-0.21746,0.6854 -0.20549,0.68639 0.22544,0.02074c0.25037,-0.38616 0.37805,-1.09723 0.28429,-1.58018c-0.17157,-0.87601 -0.17157,-0.87601 -0.22643,-0.02074m55.20767,2.50161c-0.15362,0.89872 -0.19551,1.71647 -0.09277,1.8172c0.10274,0.10172 0.30524,-0.55602 0.45187,-1.46166c0.14663,-0.90564 0.18753,-1.72338 0.09277,-1.8172c-0.09476,-0.09481 -0.29825,0.56294 -0.45187,1.46166m-56.20916,3.60477c-0.14065,0.69429 -0.18055,1.33525 -0.09077,1.42413c0.09077,0.08987 0.28828,-0.39603 0.4399,-1.07847c0.15162,-0.68244 0.19252,-1.32438 0.09077,-1.42413c-0.10175,-0.10074 -0.29925,0.38418 -0.4399,1.07847m55.4331,1.75004c-0.14963,0.79305 -0.19352,1.52092 -0.09576,1.6177c0.09776,0.0958 0.30025,-0.47306 0.45087,-1.26612c0.14963,-0.79305 0.19352,-1.52092 0.09576,-1.6177c-0.09776,-0.0958 -0.30025,0.47306 -0.45087,1.26612m-63.26348,0.71503c0,0.10864 0.53865,0.57676 1.197,1.04094c0.65835,0.46418 1.197,0.75453 1.197,0.6459c0,-0.10864 -0.53865,-0.57676 -1.197,-1.04094c-0.65835,-0.46418 -1.197,-0.75453 -1.197,-0.6459m62.44354,4.59633c-0.15362,0.89872 -0.19551,1.71647 -0.09277,1.8172c0.10274,0.10172 0.30524,-0.55602 0.45187,-1.46166c0.14663,-0.90564 0.18753,-1.72338 0.09277,-1.8172c-0.09476,-0.09481 -0.29825,0.56294 -0.45187,1.46166m-1.596,10.66618c-0.15362,0.89872 -0.19551,1.71647 -0.09277,1.8172c0.10274,0.10172 0.30524,-0.55602 0.45187,-1.46166c0.14663,-0.90564 0.18753,-1.72338 0.09277,-1.8172c-0.09476,-0.09481 -0.29825,0.56294 -0.45187,1.46166m-0.798,5.13557c-0.15362,0.89872 -0.19551,1.71647 -0.09277,1.8172c0.10274,0.10172 0.30524,-0.55602 0.45187,-1.46166c0.14663,-0.90564 0.18753,-1.72338 0.09277,-1.8172c-0.09476,-0.09481 -0.29825,0.56294 -0.45187,1.46166m-1.596,11.06123c-0.15362,0.89872 -0.19551,1.71647 -0.09277,1.8172c0.10274,0.10172 0.30524,-0.55602 0.45187,-1.46166c0.14663,-0.90564 0.18753,-1.72338 0.09277,-1.8172c-0.09476,-0.09481 -0.29825,0.56294 -0.45187,1.46166m-51.12789,35.46407c0.31521,0.50566 2.64936,2.2162 2.64936,1.94164c0,-0.09777 -0.65935,-0.67552 -1.46433,-1.28389c-0.80598,-0.60837 -1.33964,-0.90465 -1.18503,-0.65775" id="svg_3"/>
 </g>

</svg>